<svg width="427" height="74" viewBox="0 0 427 74" fill="none" xmlns="http://www.w3.org/2000/svg">
<rect x="1.5" y="7.88843" width="58.0905" height="58.0905" rx="4" fill="white" stroke="#4F4F4F" stroke-width="3"/>
<rect x="59.5898" y="7.88843" width="58.0905" height="58.0905" rx="4" fill="white" stroke="#4F4F4F" stroke-width="3"/>
<rect x="117.68" y="7.88843" width="58.0905" height="58.0905" rx="4" fill="white" stroke="#4F4F4F" stroke-width="3"/>
<rect x="175.77" y="7.88843" width="58.0905" height="58.0905" rx="4" fill="white" stroke="#4F4F4F" stroke-width="3"/>
<rect x="233.859" y="7.88843" width="58.0905" height="58.0905" rx="4" fill="white" stroke="#4F4F4F" stroke-width="3"/>
<rect x="291.949" y="7.88843" width="58.0905" height="58.0905" rx="4" fill="white" stroke="#4F4F4F" stroke-width="3"/>
<rect x="350.039" y="7.88843" width="58.0905" height="58.0905" rx="4" fill="white" stroke="#4F4F4F" stroke-width="3"/>
<path d="M19.2979 45.3392C19.1761 45.3392 19.083 45.2855 19.0186 45.1781C18.9613 45.0706 18.9326 44.9775 18.9326 44.8988C18.9326 44.7842 18.9577 44.6803 19.0078 44.5872C19.0579 44.4942 19.151 44.4404 19.2871 44.4261C19.5163 44.4046 19.7956 44.3724 20.125 44.3294C20.4544 44.2793 20.7445 44.2077 20.9951 44.1146C21.2529 44.0215 21.3818 43.8962 21.3818 43.7386L21.3926 34.93C21.0846 35.1735 20.7516 35.3705 20.3936 35.5208C20.0426 35.6712 19.7454 35.7464 19.502 35.7464C19.2585 35.7464 19.0973 35.6533 19.0186 35.4671C18.9469 35.2738 18.9111 35.1377 18.9111 35.0589C18.9111 34.8942 18.9362 34.7188 18.9863 34.5326C19.0436 34.3464 19.1475 34.2497 19.2979 34.2425C19.4626 34.2282 19.7061 34.1673 20.0283 34.0599C20.3577 33.9453 20.7051 33.8057 21.0703 33.641C21.4427 33.4691 21.7829 33.29 22.0908 33.1039C22.4059 32.9105 22.6315 32.7315 22.7676 32.5667H24.9053L24.8945 43.3841C24.8945 43.6419 24.9805 43.846 25.1523 43.9964C25.3314 44.1397 25.5677 44.2435 25.8613 44.308C26.1549 44.3724 26.4844 44.4118 26.8496 44.4261C27 44.4333 27.1003 44.4727 27.1504 44.5443C27.2077 44.6159 27.2363 44.7341 27.2363 44.8988C27.2363 44.9775 27.2041 45.0706 27.1396 45.1781C27.0824 45.2855 26.9928 45.3392 26.8711 45.3392H19.2979ZM35.3359 45.6507C34.2617 45.6507 33.3451 45.4824 32.5859 45.1458C31.8268 44.8021 31.2074 44.3294 30.7275 43.7279C30.2549 43.1263 29.9076 42.4281 29.6855 41.6331C29.4635 40.8382 29.3525 39.9896 29.3525 39.0872C29.3525 38.278 29.4635 37.4186 29.6855 36.5091C29.9147 35.5996 30.2656 34.7044 30.7383 33.8236C31.2181 32.9356 31.834 32.1227 32.5859 31.3851C33.3379 30.6475 34.2367 30.0387 35.2822 29.5589C36.3278 29.0791 37.5345 28.7927 38.9023 28.6996L38.9131 29.6878C37.9391 29.8669 37.1156 30.1748 36.4424 30.6117C35.7764 31.0485 35.2321 31.5641 34.8096 32.1585C34.387 32.7458 34.0576 33.376 33.8213 34.0492C33.5921 34.7152 33.4274 35.374 33.3271 36.0257C33.7282 35.7464 34.1973 35.5065 34.7344 35.306C35.2786 35.0983 35.9196 34.9945 36.6572 34.9945C37.7744 34.9945 38.6947 35.2129 39.418 35.6497C40.1413 36.0794 40.6784 36.6667 41.0293 37.4115C41.3874 38.1563 41.5664 39.0013 41.5664 39.9466C41.5664 40.985 41.3158 41.9375 40.8145 42.804C40.3132 43.6706 39.597 44.3617 38.666 44.8773C37.735 45.3929 36.625 45.6507 35.3359 45.6507ZM35.293 44.6302C35.9303 44.6302 36.4245 44.444 36.7754 44.0716C37.1263 43.6992 37.3734 43.1872 37.5166 42.5355C37.6598 41.8766 37.7314 41.1211 37.7314 40.2689C37.7314 39.0085 37.5381 38.0274 37.1514 37.3255C36.7646 36.6165 36.1488 36.2621 35.3037 36.2621C34.874 36.2621 34.4837 36.3408 34.1328 36.4984C33.7819 36.6559 33.4704 36.86 33.1982 37.1107C33.1696 37.4401 33.1517 37.7552 33.1445 38.056C33.1374 38.3496 33.1338 38.6218 33.1338 38.8724C33.1338 39.9609 33.1947 40.9421 33.3164 41.8158C33.4453 42.6823 33.6673 43.3698 33.9824 43.8783C34.2975 44.3796 34.7344 44.6302 35.293 44.6302Z" fill="#4F4F4F"/>
<path d="M77.3838 45.3392C77.262 45.3392 77.1689 45.2855 77.1045 45.1781C77.0472 45.0706 77.0186 44.9775 77.0186 44.8988C77.0186 44.7842 77.0436 44.6803 77.0938 44.5872C77.1439 44.4942 77.237 44.4404 77.373 44.4261C77.6022 44.4046 77.8815 44.3724 78.2109 44.3294C78.5404 44.2793 78.8304 44.2077 79.0811 44.1146C79.3389 44.0215 79.4678 43.8962 79.4678 43.7386L79.4785 34.93C79.1706 35.1735 78.8376 35.3705 78.4795 35.5208C78.1286 35.6712 77.8314 35.7464 77.5879 35.7464C77.3444 35.7464 77.1833 35.6533 77.1045 35.4671C77.0329 35.2738 76.9971 35.1377 76.9971 35.0589C76.9971 34.8942 77.0221 34.7188 77.0723 34.5326C77.1296 34.3464 77.2334 34.2497 77.3838 34.2425C77.5485 34.2282 77.792 34.1673 78.1143 34.0599C78.4437 33.9453 78.791 33.8057 79.1562 33.641C79.5286 33.4691 79.8688 33.29 80.1768 33.1039C80.4919 32.9105 80.7174 32.7315 80.8535 32.5667H82.9912L82.9805 43.3841C82.9805 43.6419 83.0664 43.846 83.2383 43.9964C83.4173 44.1397 83.6536 44.2435 83.9473 44.308C84.2409 44.3724 84.5703 44.4118 84.9355 44.4261C85.0859 44.4333 85.1862 44.4727 85.2363 44.5443C85.2936 44.6159 85.3223 44.7341 85.3223 44.8988C85.3223 44.9775 85.29 45.0706 85.2256 45.1781C85.1683 45.2855 85.0788 45.3392 84.957 45.3392H77.3838ZM89.791 49.0882L95.7852 35.5531H90.2422C89.9128 35.5531 89.6514 35.6104 89.458 35.7249C89.2718 35.8395 89.1286 35.9971 89.0283 36.1976C88.9281 36.391 88.8457 36.6165 88.7812 36.8744C88.7168 37.125 88.6452 37.3864 88.5664 37.6585C88.5306 37.7946 88.4482 37.8877 88.3193 37.9378C88.1976 37.988 88.0794 38.013 87.9648 38.013C87.8861 38.013 87.7751 37.9844 87.6318 37.9271C87.4886 37.8626 87.417 37.7695 87.417 37.6478L87.793 32.556H97.8584L98.3203 32.9642L92.3906 49.099L89.791 49.0882Z" fill="#4F4F4F"/>
<path d="M135.47 45.3392C135.348 45.3392 135.255 45.2855 135.19 45.1781C135.133 45.0706 135.104 44.9775 135.104 44.8988C135.104 44.7842 135.13 44.6803 135.18 44.5872C135.23 44.4942 135.323 44.4404 135.459 44.4261C135.688 44.4046 135.967 44.3724 136.297 44.3294C136.626 44.2793 136.916 44.2077 137.167 44.1146C137.425 44.0215 137.554 43.8962 137.554 43.7386L137.564 34.93C137.257 35.1735 136.924 35.3705 136.565 35.5208C136.215 35.6712 135.917 35.7464 135.674 35.7464C135.43 35.7464 135.269 35.6533 135.19 35.4671C135.119 35.2738 135.083 35.1377 135.083 35.0589C135.083 34.8942 135.108 34.7188 135.158 34.5326C135.215 34.3464 135.319 34.2497 135.47 34.2425C135.634 34.2282 135.878 34.1673 136.2 34.0599C136.53 33.9453 136.877 33.8057 137.242 33.641C137.615 33.4691 137.955 33.29 138.263 33.1039C138.578 32.9105 138.803 32.7315 138.939 32.5667H141.077L141.066 43.3841C141.066 43.6419 141.152 43.846 141.324 43.9964C141.503 44.1397 141.74 44.2435 142.033 44.308C142.327 44.3724 142.656 44.4118 143.021 44.4261C143.172 44.4333 143.272 44.4727 143.322 44.5443C143.38 44.6159 143.408 44.7341 143.408 44.8988C143.408 44.9775 143.376 45.0706 143.312 45.1781C143.254 45.2855 143.165 45.3392 143.043 45.3392H135.47ZM151.927 45.6615C150.58 45.6615 149.438 45.486 148.5 45.1351C147.562 44.7842 146.849 44.2865 146.362 43.6419C145.882 42.9902 145.643 42.2204 145.643 41.3324C145.643 40.5876 145.836 39.9574 146.223 39.4417C146.609 38.9261 147.071 38.5143 147.608 38.2064C148.153 37.8984 148.661 37.6872 149.134 37.5726C148.632 37.2289 148.174 36.8779 147.759 36.5199C147.343 36.1546 147.01 35.7464 146.76 35.2953C146.516 34.8441 146.395 34.3177 146.395 33.7162C146.395 33.0358 146.609 32.3984 147.039 31.804C147.476 31.2025 148.106 30.7155 148.93 30.3431C149.76 29.9636 150.767 29.7738 151.948 29.7738C153.187 29.7738 154.204 29.9313 154.999 30.2464C155.801 30.5615 156.396 30.9948 156.782 31.5462C157.169 32.0905 157.362 32.71 157.362 33.4046C157.362 33.9632 157.208 34.4609 156.9 34.8978C156.592 35.3346 156.202 35.707 155.729 36.015C155.257 36.3229 154.766 36.5664 154.258 36.7455C154.974 37.0964 155.626 37.4759 156.213 37.8841C156.8 38.2923 157.269 38.7865 157.62 39.3665C157.971 39.9395 158.146 40.6484 158.146 41.4935C158.146 42.2669 157.885 42.9688 157.362 43.599C156.84 44.2292 156.109 44.7305 155.171 45.1029C154.24 45.4753 153.159 45.6615 151.927 45.6615ZM153.194 36.2513C153.509 36.0436 153.778 35.7178 154 35.2738C154.222 34.8226 154.333 34.1602 154.333 33.2865C154.333 32.8496 154.251 32.445 154.086 32.0726C153.928 31.693 153.671 31.3851 153.312 31.1488C152.962 30.9124 152.496 30.7943 151.916 30.7943C151.15 30.7943 150.552 30.9733 150.122 31.3314C149.692 31.6895 149.478 32.2516 149.478 33.0179C149.478 33.4404 149.599 33.82 149.843 34.1566C150.093 34.486 150.491 34.8154 151.035 35.1449C151.579 35.4743 152.299 35.8431 153.194 36.2513ZM152.066 44.641C152.962 44.641 153.667 44.4225 154.183 43.9857C154.698 43.5488 154.956 42.915 154.956 42.0843C154.956 41.5687 154.806 41.1175 154.505 40.7308C154.204 40.3441 153.825 40.0147 153.366 39.7425C152.915 39.4632 152.464 39.2305 152.013 39.0443C151.669 38.8939 151.322 38.7363 150.971 38.5716C150.627 38.4069 150.287 38.235 149.95 38.056C149.678 38.3138 149.445 38.6934 149.252 39.1947C149.066 39.696 148.944 40.362 148.887 41.1927C148.887 41.6511 148.955 42.0879 149.091 42.5033C149.227 42.9186 149.427 43.2874 149.692 43.6097C149.957 43.9248 150.287 44.1755 150.681 44.3617C151.082 44.5479 151.544 44.641 152.066 44.641Z" fill="#4F4F4F"/>
<path d="M193.556 45.3392C193.434 45.3392 193.341 45.2855 193.276 45.1781C193.219 45.0706 193.19 44.9775 193.19 44.8988C193.19 44.7842 193.215 44.6803 193.266 44.5872C193.316 44.4942 193.409 44.4404 193.545 44.4261C193.774 44.4046 194.053 44.3724 194.383 44.3294C194.712 44.2793 195.002 44.2077 195.253 44.1146C195.511 44.0215 195.64 43.8962 195.64 43.7386L195.65 34.93C195.342 35.1735 195.009 35.3705 194.651 35.5208C194.3 35.6712 194.003 35.7464 193.76 35.7464C193.516 35.7464 193.355 35.6533 193.276 35.4671C193.205 35.2738 193.169 35.1377 193.169 35.0589C193.169 34.8942 193.194 34.7188 193.244 34.5326C193.301 34.3464 193.405 34.2497 193.556 34.2425C193.72 34.2282 193.964 34.1673 194.286 34.0599C194.616 33.9453 194.963 33.8057 195.328 33.641C195.701 33.4691 196.041 33.29 196.349 33.1039C196.664 32.9105 196.889 32.7315 197.025 32.5667H199.163L199.152 43.3841C199.152 43.6419 199.238 43.846 199.41 43.9964C199.589 44.1397 199.826 44.2435 200.119 44.308C200.413 44.3724 200.742 44.4118 201.107 44.4261C201.258 44.4333 201.358 44.4727 201.408 44.5443C201.465 44.6159 201.494 44.7341 201.494 44.8988C201.494 44.9775 201.462 45.0706 201.397 45.1781C201.34 45.2855 201.251 45.3392 201.129 45.3392H193.556ZM206.274 49.3568L206.264 48.3685C207.245 48.1823 208.068 47.8708 208.734 47.4339C209.4 47.0042 209.945 46.4922 210.367 45.8978C210.79 45.3106 211.116 44.6839 211.345 44.0179C211.581 43.3447 211.749 42.6823 211.85 42.0306C211.456 42.3099 210.987 42.5534 210.442 42.7611C209.898 42.9616 209.257 43.0619 208.52 43.0619C207.41 43.0619 206.489 42.847 205.759 42.4173C205.035 41.9805 204.495 41.3897 204.137 40.6449C203.786 39.8929 203.61 39.0479 203.61 38.1097C203.61 37.0641 203.861 36.1117 204.362 35.2523C204.864 34.3858 205.58 33.6947 206.511 33.179C207.449 32.6634 208.559 32.4056 209.841 32.4056C210.915 32.4056 211.832 32.5775 212.591 32.9212C213.35 33.2578 213.966 33.7269 214.438 34.3285C214.918 34.93 215.269 35.6283 215.491 36.4232C215.713 37.2181 215.824 38.0667 215.824 38.9691C215.824 39.7783 215.71 40.6377 215.48 41.5472C215.258 42.4567 214.908 43.3555 214.428 44.2435C213.955 45.1244 213.343 45.9336 212.591 46.6712C211.839 47.4089 210.94 48.0176 209.895 48.4974C208.849 48.9772 207.642 49.2637 206.274 49.3568ZM209.873 41.7943C210.303 41.7943 210.693 41.7155 211.044 41.558C211.395 41.3932 211.706 41.1891 211.979 40.9456C212.007 40.6091 212.025 40.294 212.032 40.0003C212.039 39.6996 212.043 39.4274 212.043 39.1839C212.043 38.0954 211.979 37.1178 211.85 36.2513C211.728 35.3776 211.509 34.6901 211.194 34.1888C210.886 33.6803 210.45 33.4261 209.884 33.4261C209.254 33.4261 208.759 33.6123 208.401 33.9847C208.05 34.3571 207.803 34.8727 207.66 35.5316C207.517 36.1833 207.445 36.9352 207.445 37.7874C207.445 39.0407 207.639 40.0218 208.025 40.7308C208.412 41.4398 209.028 41.7943 209.873 41.7943Z" fill="#4F4F4F"/>
<path d="M251.115 45.3392V44.9955C251.115 44.8952 251.137 44.7878 251.18 44.6732C251.23 44.5514 251.294 44.4583 251.373 44.3939C252.139 43.778 252.931 43.1729 253.747 42.5785C254.571 41.9841 255.333 41.3682 256.035 40.7308C256.737 40.0934 257.303 39.4059 257.732 38.6683C258.169 37.9307 258.388 37.1107 258.388 36.2083C258.388 35.8431 258.327 35.4456 258.205 35.016C258.083 34.5791 257.868 34.2067 257.561 33.8988C257.26 33.5837 256.83 33.4261 256.271 33.4261C255.878 33.4261 255.562 33.4906 255.326 33.6195C255.097 33.7412 254.922 33.8916 254.8 34.0706C254.685 34.2497 254.603 34.418 254.553 34.5755C254.431 34.8978 254.309 35.2201 254.188 35.5423C254.066 35.8646 253.944 36.1869 253.822 36.5091C253.751 36.7383 253.65 36.9603 253.521 37.1751C253.4 37.39 253.149 37.4974 252.77 37.4974C252.505 37.4974 252.24 37.4473 251.975 37.347C251.717 37.2468 251.498 37.0892 251.319 36.8744C251.147 36.6524 251.062 36.3731 251.062 36.0365C251.062 35.6999 251.165 35.3203 251.373 34.8978C251.588 34.4681 251.942 34.0635 252.437 33.6839C252.931 33.3044 253.536 32.9964 254.252 32.7601C254.975 32.5166 255.77 32.3949 256.637 32.3949C258.499 32.3949 259.881 32.7243 260.783 33.3831C261.686 34.0348 262.137 34.973 262.137 36.1976C262.137 36.9352 261.929 37.6156 261.514 38.2386C261.098 38.8617 260.55 39.4382 259.87 39.9681C259.197 40.4909 258.459 40.9743 257.657 41.4183C256.862 41.8623 256.082 42.2777 255.315 42.6644H262.523L262.416 45.3392H251.115ZM271.375 45.6507C270 45.6507 268.822 45.3858 267.841 44.8558C266.86 44.3187 266.104 43.5596 265.574 42.5785C265.051 41.5973 264.79 40.4336 264.79 39.0872C264.79 37.7122 265.059 36.527 265.596 35.5316C266.133 34.529 266.899 33.7555 267.895 33.2113C268.89 32.667 270.075 32.3949 271.45 32.3949C273.541 32.3949 275.156 32.9964 276.295 34.1996C277.434 35.4027 278.003 37.0319 278.003 39.0872C278.003 40.4336 277.738 41.5973 277.208 42.5785C276.685 43.5596 275.93 44.3187 274.941 44.8558C273.953 45.3858 272.764 45.6507 271.375 45.6507ZM271.407 44.6302C272.159 44.6302 272.732 44.4297 273.126 44.0287C273.527 43.6205 273.799 43.0081 273.942 42.1917C274.093 41.3682 274.168 40.3333 274.168 39.0872C274.168 37.1823 273.982 35.7608 273.609 34.8226C273.237 33.8845 272.489 33.4154 271.364 33.4154C270.612 33.4154 270.036 33.6231 269.635 34.0384C269.241 34.4538 268.969 35.084 268.818 35.929C268.675 36.7669 268.604 37.8197 268.604 39.0872C268.604 40.9564 268.79 42.3493 269.162 43.266C269.535 44.1755 270.283 44.6302 271.407 44.6302Z" fill="#4F4F4F"/>
<path d="M309.201 45.3392V44.9955C309.201 44.8952 309.223 44.7878 309.266 44.6732C309.316 44.5514 309.38 44.4583 309.459 44.3939C310.225 43.778 311.017 43.1729 311.833 42.5785C312.657 41.9841 313.419 41.3682 314.121 40.7308C314.823 40.0934 315.389 39.4059 315.818 38.6683C316.255 37.9307 316.474 37.1107 316.474 36.2083C316.474 35.8431 316.413 35.4456 316.291 35.016C316.169 34.5791 315.954 34.2067 315.646 33.8988C315.346 33.5837 314.916 33.4261 314.357 33.4261C313.964 33.4261 313.648 33.4906 313.412 33.6195C313.183 33.7412 313.007 33.8916 312.886 34.0706C312.771 34.2497 312.689 34.418 312.639 34.5755C312.517 34.8978 312.395 35.2201 312.273 35.5423C312.152 35.8646 312.03 36.1869 311.908 36.5091C311.837 36.7383 311.736 36.9603 311.607 37.1751C311.486 37.39 311.235 37.4974 310.855 37.4974C310.59 37.4974 310.326 37.4473 310.061 37.347C309.803 37.2468 309.584 37.0892 309.405 36.8744C309.233 36.6524 309.147 36.3731 309.147 36.0365C309.147 35.6999 309.251 35.3203 309.459 34.8978C309.674 34.4681 310.028 34.0635 310.522 33.6839C311.017 33.3044 311.622 32.9964 312.338 32.7601C313.061 32.5166 313.856 32.3949 314.723 32.3949C316.585 32.3949 317.967 32.7243 318.869 33.3831C319.771 34.0348 320.223 34.973 320.223 36.1976C320.223 36.9352 320.015 37.6156 319.6 38.2386C319.184 38.8617 318.636 39.4382 317.956 39.9681C317.283 40.4909 316.545 40.9743 315.743 41.4183C314.948 41.8623 314.168 42.2777 313.401 42.6644H320.609L320.502 45.3392H309.201ZM323.521 45.3392C323.399 45.3392 323.306 45.2855 323.241 45.1781C323.184 45.0706 323.155 44.9775 323.155 44.8988C323.155 44.7842 323.18 44.6803 323.23 44.5872C323.281 44.4942 323.374 44.4404 323.51 44.4261C323.739 44.4046 324.018 44.3724 324.348 44.3294C324.677 44.2793 324.967 44.2077 325.218 44.1146C325.476 44.0215 325.604 43.8962 325.604 43.7386L325.615 34.93C325.307 35.1735 324.974 35.3705 324.616 35.5208C324.265 35.6712 323.968 35.7464 323.725 35.7464C323.481 35.7464 323.32 35.6533 323.241 35.4671C323.17 35.2738 323.134 35.1377 323.134 35.0589C323.134 34.8942 323.159 34.7188 323.209 34.5326C323.266 34.3464 323.37 34.2497 323.521 34.2425C323.685 34.2282 323.929 34.1673 324.251 34.0599C324.58 33.9453 324.928 33.8057 325.293 33.641C325.665 33.4691 326.006 33.29 326.313 33.1039C326.629 32.9105 326.854 32.7315 326.99 32.5667H329.128L329.117 43.3841C329.117 43.6419 329.203 43.846 329.375 43.9964C329.554 44.1397 329.79 44.2435 330.084 44.308C330.378 44.3724 330.707 44.4118 331.072 44.4261C331.223 44.4333 331.323 44.4727 331.373 44.5443C331.43 44.6159 331.459 44.7341 331.459 44.8988C331.459 44.9775 331.427 45.0706 331.362 45.1781C331.305 45.2855 331.215 45.3392 331.094 45.3392H323.521Z" fill="#4F4F4F"/>
<path d="M367.287 45.3392V44.9955C367.287 44.8952 367.309 44.7878 367.352 44.6732C367.402 44.5514 367.466 44.4583 367.545 44.3939C368.311 43.778 369.103 43.1729 369.919 42.5785C370.743 41.9841 371.505 41.3682 372.207 40.7308C372.909 40.0934 373.475 39.4059 373.904 38.6683C374.341 37.9307 374.56 37.1107 374.56 36.2083C374.56 35.8431 374.499 35.4456 374.377 35.016C374.255 34.5791 374.04 34.2067 373.732 33.8988C373.432 33.5837 373.002 33.4261 372.443 33.4261C372.049 33.4261 371.734 33.4906 371.498 33.6195C371.269 33.7412 371.093 33.8916 370.972 34.0706C370.857 34.2497 370.775 34.418 370.725 34.5755C370.603 34.8978 370.481 35.2201 370.359 35.5423C370.238 35.8646 370.116 36.1869 369.994 36.5091C369.923 36.7383 369.822 36.9603 369.693 37.1751C369.572 37.39 369.321 37.4974 368.941 37.4974C368.676 37.4974 368.411 37.4473 368.146 37.347C367.889 37.2468 367.67 37.0892 367.491 36.8744C367.319 36.6524 367.233 36.3731 367.233 36.0365C367.233 35.6999 367.337 35.3203 367.545 34.8978C367.76 34.4681 368.114 34.0635 368.608 33.6839C369.103 33.3044 369.708 32.9964 370.424 32.7601C371.147 32.5166 371.942 32.3949 372.809 32.3949C374.671 32.3949 376.053 32.7243 376.955 33.3831C377.857 34.0348 378.309 34.973 378.309 36.1976C378.309 36.9352 378.101 37.6156 377.686 38.2386C377.27 38.8617 376.722 39.4382 376.042 39.9681C375.369 40.4909 374.631 40.9743 373.829 41.4183C373.034 41.8623 372.254 42.2777 371.487 42.6644H378.695L378.588 45.3392H367.287ZM381.08 45.3392V44.9955C381.08 44.8952 381.102 44.7878 381.145 44.6732C381.195 44.5514 381.259 44.4583 381.338 44.3939C382.104 43.778 382.896 43.1729 383.712 42.5785C384.535 41.9841 385.298 41.3682 386 40.7308C386.702 40.0934 387.268 39.4059 387.697 38.6683C388.134 37.9307 388.353 37.1107 388.353 36.2083C388.353 35.8431 388.292 35.4456 388.17 35.016C388.048 34.5791 387.833 34.2067 387.525 33.8988C387.225 33.5837 386.795 33.4261 386.236 33.4261C385.842 33.4261 385.527 33.4906 385.291 33.6195C385.062 33.7412 384.886 33.8916 384.765 34.0706C384.65 34.2497 384.568 34.418 384.518 34.5755C384.396 34.8978 384.274 35.2201 384.152 35.5423C384.031 35.8646 383.909 36.1869 383.787 36.5091C383.715 36.7383 383.615 36.9603 383.486 37.1751C383.365 37.39 383.114 37.4974 382.734 37.4974C382.469 37.4974 382.204 37.4473 381.939 37.347C381.682 37.2468 381.463 37.0892 381.284 36.8744C381.112 36.6524 381.026 36.3731 381.026 36.0365C381.026 35.6999 381.13 35.3203 381.338 34.8978C381.553 34.4681 381.907 34.0635 382.401 33.6839C382.896 33.3044 383.501 32.9964 384.217 32.7601C384.94 32.5166 385.735 32.3949 386.602 32.3949C388.464 32.3949 389.846 32.7243 390.748 33.3831C391.65 34.0348 392.102 34.973 392.102 36.1976C392.102 36.9352 391.894 37.6156 391.479 38.2386C391.063 38.8617 390.515 39.4382 389.835 39.9681C389.162 40.4909 388.424 40.9743 387.622 41.4183C386.827 41.8623 386.047 42.2777 385.28 42.6644H392.488L392.381 45.3392H381.08Z" fill="#A3223C"/>
<path d="M409.606 9.05271C411.434 9.68008 413.425 8.7065 414.052 6.87814C414.679 5.04979 413.706 3.05903 411.878 2.43165L410.742 5.74218L409.606 9.05271ZM362.828 12.2928L364.715 15.2409L362.828 12.2928ZM353.409 64.4503L355.441 61.6005L353.409 64.4503ZM394.89 14.6198L394.497 11.1419L394.89 14.6198ZM364.756 23.6039C363.648 25.1875 364.033 27.3699 365.616 28.4784C367.2 29.5869 369.382 29.2017 370.491 27.6182L367.624 25.611L364.756 23.6039ZM410.742 5.74218L411.878 2.43165C406.516 0.592068 398.271 -0.501319 389.226 0.228735C380.145 0.9617 369.992 3.55355 360.942 9.34481L362.828 12.2928L364.715 15.2409C372.577 10.2099 381.554 7.87073 389.789 7.20604C398.061 6.53844 405.316 7.58082 409.606 9.05271L410.742 5.74218ZM362.828 12.2928L360.942 9.34481C349.804 16.4725 341.792 26.6787 339.351 37.3686C336.851 48.3155 340.311 59.4098 351.377 67.3001L353.409 64.4503L355.441 61.6005C346.698 55.3665 344.298 47.146 346.175 38.9272C348.111 30.4513 354.714 21.6409 364.715 15.2409L362.828 12.2928ZM353.409 64.4503L351.377 67.3001C362.513 75.2402 377.854 75.2493 391.207 71.1921C404.548 67.1387 417.072 58.681 422.519 48.1438L419.409 46.5367L416.3 44.9297C412.023 53.2044 401.45 60.7638 389.172 64.4944C376.907 68.2212 364.109 67.7811 355.441 61.6005L353.409 64.4503ZM419.409 46.5367L422.519 48.1438C427.75 38.0222 428.089 27.848 422.75 20.4459C417.425 13.0628 407.35 9.68903 394.497 11.1419L394.89 14.6198L395.284 18.0976C406.739 16.8027 413.784 19.9814 417.073 24.5407C420.347 29.081 420.792 36.2393 416.3 44.9297L419.409 46.5367ZM394.89 14.6198L394.497 11.1419C387.4 11.9442 380.584 14.3043 375.379 16.7062C372.767 17.9117 370.506 19.1528 368.767 20.2597C367.899 20.8118 367.129 21.3514 366.495 21.8567C365.929 22.308 365.242 22.9102 364.756 23.6039L367.624 25.611L370.491 27.6182C370.375 27.7834 370.404 27.6926 370.859 27.3299C371.246 27.0211 371.802 26.6257 372.525 26.1652C373.968 25.247 375.948 24.153 378.312 23.0621C383.06 20.871 389.138 18.7923 395.284 18.0976L394.89 14.6198Z" fill="#A3223C"/>
</svg>
