<svg width="549" height="215" viewBox="0 0 549 215" fill="none" xmlns="http://www.w3.org/2000/svg">
<path d="M260.932 0.143731C285.654 -0.366737 399.694 -0.20435 415.725 12.7614C427.8 22.5279 430.018 60.6372 431.793 76.0759C432.935 74.4614 434.093 72.8584 435.268 71.268C450.467 50.7275 471.809 33.563 497.829 29.6165C520.436 26.1883 545.438 36.7167 548.215 61.8573C550.275 80.5058 541.695 97.5949 530.328 111.852C560.279 134.544 546.893 165.052 517.987 179.837C508 184.945 501.728 187.216 490.795 190.204C475.749 219.577 433.445 219.907 408.397 203.36C392.802 207.567 368.796 208.802 352.219 209.972C330.244 211.69 308.237 212.999 286.212 213.895C255.128 213.784 225.96 212.654 194.947 209.924C178.655 208.49 155.467 207.907 140.219 203.112C115.136 220.274 72.9194 219.49 57.5277 190.243C39.6193 185.734 19.2076 176.791 8.05273 161.56C-5.0465 143.674 0.689957 124.26 17.8945 112.111C-10.9087 76.8784 -8.05929 24.6878 49.5191 29.4976C77.2317 31.8121 100.129 54.6797 116.446 75.8275C118.173 59.7825 120.172 26.371 130.44 14.577C143.181 -0.0574061 237.425 0.639698 260.932 0.143731ZM381.865 194.889C392.415 193.833 402.609 191.928 409.153 182.789C418.79 169.332 416.05 143.879 415.893 128.446C415.625 102.119 413.981 77.2139 411.561 51.15C408.969 27.1145 402.616 19.0185 378.204 18.3379C359.309 17.8109 340.857 18.6327 322.072 19.0552C297.105 19.5918 272.132 19.761 247.159 19.5628C230.268 19.5473 213.008 18.5428 196.115 18.304C188.873 18.2016 175.541 17.4107 168.696 18.45C159.12 19.4014 149.571 20.3855 142.962 28.2524C132.24 41.0121 130.444 145.647 132.711 165.477C133.689 174.021 137.367 182.564 144.26 187.994C148.007 190.946 152.592 192.59 157.216 193.567C172.723 196.842 190.158 196.708 206.002 197.378C240.564 199.079 275.177 199.471 309.768 198.555C325.509 198.004 341.246 197.341 356.977 196.565C364.742 196.106 374.334 194.964 381.865 194.889ZM433.835 97.4605C434.348 126.738 436.324 159.684 426.475 187.573C425.575 190.123 419.826 193.345 422.413 195.382C433.697 204.269 460.916 198.276 471.403 192.487C462.297 191.16 454.084 190.13 448.139 182.191C442.715 174.947 444.934 164.69 452.456 159.955C465.37 151.828 478.219 158.475 486.991 168.834L490.389 176.121C508.038 170.446 539.381 158.125 531.625 134.279C528.783 125.544 521.72 120.654 513.846 127.378C503.514 135.2 488.114 144.105 474.835 140.832C467.078 138.921 458.593 128.886 461.911 120.687C470.017 100.659 499.196 103.302 516.614 106.554C539.455 79.2993 546.502 39.1733 498.724 43.3566C470.871 49.9695 451.334 68.5011 436.664 92.5221C435.667 94.1376 434.724 95.7841 433.835 97.4605ZM71.6664 159.575C82.3146 154.861 96.9318 154.408 101.912 167.18C103.472 171.222 103.28 175.731 101.383 179.628C96.6224 189.573 86.6249 191.078 76.9648 192.48C93.6154 201.118 111.05 202.828 128.156 194.412C109.703 178.311 114.215 122.214 114.36 97.5272C97.6482 68.7466 70.7759 39.9516 34.3991 43.3692C-0.395836 52.4 15.2608 87.168 31.3999 106.595C47.2112 103.527 82.3484 100.578 86.1057 122.205C86.8328 126.297 85.8069 130.507 83.2795 133.807C71.1684 149.71 44.4102 136.162 32.3619 126.338C30.8333 125.087 29.323 123.813 27.8311 122.517C16.5931 129.2 10.2756 140.022 18.4215 152.204C26.8536 164.813 43.8204 171.973 58.0083 176.026C60.9602 168.086 64.2862 164.025 71.6664 159.575ZM459.496 170.89C459.052 173.915 458.792 172.669 460.828 175.563C464.977 178.059 470.695 178.455 475.498 178.541C474.876 171.236 465.261 170.198 459.496 170.89ZM504.097 118.151C499.074 118.239 492.729 118.167 487.851 118.798C483.806 119.623 481.029 119.865 477.746 122.364L476.601 124.524C479.333 128.711 484.689 126.885 489.038 125.831C495.53 123.101 498.103 121.855 504.097 118.151ZM80.1565 170.61C77.4995 172.403 74.3485 174.052 73.136 176.929C75.2796 179.276 79.2438 178.243 82.3223 177.816C85.1524 176.704 87.1509 176.269 88.7607 173.656C87.8209 169.661 83.7156 170.559 80.1565 170.61ZM44.4807 118.565C52.9709 123.376 62.7837 129.582 72.8556 125.931C69.9018 117.415 52.0504 117.542 44.4807 118.565Z" fill="#171211"/>
<path d="M147.849 44.1891C155.227 47.7556 167.548 57.5174 174.766 62.3987C201.731 80.6335 229.054 98.5907 256.331 116.334C265.774 122.477 279.665 123.459 289.547 117.379C327.151 94.2469 363.399 68.5852 400.117 44.0537C403.062 69.5317 404.578 88.9044 404.881 114.448C404.962 126.722 404.958 138.994 404.869 151.268C404.756 159.323 405.014 173.604 398.226 179.303C386.007 189.56 270.089 189.097 248.001 188.575C231.951 188.195 156.409 187.881 148.818 178.439C137.003 163.742 145.918 66.8769 147.849 44.1891Z" fill="#171211"/>
<path d="M176.693 26.1924C220.159 28.8056 265.074 27.5768 308.644 27.7992C323.649 27.8765 393.168 21.4067 398.473 34.1597C395.761 36.7556 385.118 43.6247 381.179 46.2824C366.434 56.2095 351.586 65.9819 336.636 75.5976C319.776 85.2492 304.175 97.9364 287.365 107.723C279.224 112.464 270.099 113.08 261.853 108.02C223.84 84.6962 187.14 58.7251 149.625 34.6576L149.386 33.1678C153.845 26.9445 169.474 26.6835 176.693 26.1924Z" fill="#171211"/>
</svg>
