<svg width="876" height="941" viewBox="0 0 876 941" fill="none" xmlns="http://www.w3.org/2000/svg">
<path d="M438.868 0.307423C557.394 -1.94715 678.918 8.12977 794.838 32.8314C809.415 35.9377 835.929 38.7405 847.084 49.2979C866.351 67.5336 874 259.583 875.054 297.794C879.734 467.437 867.317 660.459 824.394 824.409C820.075 840.902 812.79 877.177 801.516 888.72C793.252 897.189 772.684 900.477 761.315 903.638C656.852 932.748 548.247 940.918 440.221 940.724C335.678 940.705 231.419 929.838 129.118 908.308C118.95 906.171 89.7064 901.385 84.1439 895.053C75.6547 885.404 70.5835 845.572 67.2371 831.196C58.8833 795.318 51.128 758.947 44.3908 722.953C21.4913 600.46 7.31598 476.501 1.97109 352.004C-1.41906 279.535 -0.435268 206.926 4.91619 134.576C10.6372 62.4599 4.28193 65.2104 73.7925 46.4932C193.998 14.1239 314.803 2.48658 438.868 0.307423ZM54.3274 252.9C52.7843 282.742 53.3296 308.396 55.186 338.23C60.1267 417.624 70.4675 496.472 81.0499 575.285L89.6 639.886C92.4233 661.668 93.7199 679.215 101.846 700.137C106.875 713.082 106.186 722.789 121.868 727.507C125.504 727.362 138.962 732.525 143.505 733.897C157.663 738.161 171.286 740.307 185.841 742.599C193.396 744.696 205.59 746.234 213.474 746.427C295.728 757.874 395.767 754.519 479.153 750.362C518.493 747.616 558.994 748.177 598.17 744.445C644.869 739.988 692.486 733.366 739.215 728.097C751.141 726.753 754.702 720.44 764.625 718.902C775.46 717.916 786.779 695.351 787.759 685.519L788.127 685.239C789.969 681.922 791.535 672.777 792.523 668.581C798.395 642.719 802.756 616.528 805.582 590.164C806.822 577.731 807.76 565.404 808.758 552.952C811.125 523.407 815.56 493.796 818.45 464.231C823.07 416.704 826.288 369.052 828.1 321.335C829.17 298.629 831.274 246.229 825.783 225.774C825.988 216.717 818.872 208.714 812.721 202.872C806.274 198.796 795.182 193.975 787.49 192.693C724.338 182.169 654.561 174.491 590.504 171.476C542.944 169.184 495.329 168.185 447.714 168.478C426.459 168.476 406.97 167.913 385.421 168.5C334.708 170.345 284.078 174.038 233.634 179.571C225.931 180.399 205.268 181.078 199.545 182.331L194.438 182.386L111.859 192.831C107.568 193.485 103.037 193.842 98.9806 194.461C73.2898 198.385 52.7533 217.698 54.7741 244.972C54.8573 246.1 54.5769 251.957 54.3274 252.9Z" fill="#451a03"/>
<path d="M199.545 182.331C205.268 181.078 225.931 180.399 233.633 179.57C284.078 174.037 334.708 170.344 385.421 168.5C406.97 167.913 426.459 168.475 447.714 168.477C495.329 168.184 542.944 169.183 590.504 171.475C654.561 174.491 724.338 182.168 787.49 192.693C795.182 193.975 806.274 198.795 812.721 202.871C818.872 208.713 825.988 216.717 825.783 225.774C831.274 246.228 829.17 298.628 828.099 321.335C826.288 369.051 823.07 416.703 818.45 464.23C815.56 493.796 811.125 523.407 808.758 552.951C807.76 565.403 806.821 577.73 805.582 590.163C802.756 616.528 798.395 642.718 792.523 668.58C791.535 672.776 789.969 681.922 788.127 685.238L787.758 685.518C786.779 695.351 775.46 717.916 764.625 718.902C754.702 720.439 751.141 726.752 739.215 728.096C692.485 733.365 644.869 739.988 598.17 744.445C558.994 748.176 518.493 747.616 479.153 750.361C395.767 754.519 295.728 757.873 213.474 746.427C205.59 746.233 193.396 744.696 185.841 742.598C171.286 740.307 157.663 738.16 143.505 733.897C138.962 732.524 125.504 727.361 121.867 727.506C106.186 722.788 106.875 713.082 101.846 700.136C93.7197 679.215 92.4231 661.667 89.5999 639.885L81.0498 575.284C70.4673 496.472 60.1266 417.624 55.1859 338.229C53.3295 308.395 52.7841 282.741 54.3273 252.899C54.5767 251.956 54.8571 246.099 54.774 244.971C52.7532 217.698 73.2896 198.384 98.9805 194.461C103.037 193.841 107.568 193.485 111.859 192.831L194.438 182.386L199.545 182.331ZM153.934 626.437C163.502 607.237 167.483 601.078 184.838 587.833C188.65 589.486 193.752 591.207 197.737 592.677C201.323 577.604 202.527 568.845 199.961 553.367C189.665 558.027 177.566 561.991 166.902 557.147C139.343 544.656 138.748 522.478 147.839 498.791C139.896 484.609 136.308 469.45 137.848 453.353C138.123 450.49 138.813 440.815 138.339 438.585C131.627 435.538 129.062 431.539 127.482 424.235C122.958 403.31 131.536 384.745 142.303 367.431L142.218 366.649C141.622 360.868 140.641 359.316 144.313 353.637C158.686 331.409 192.312 310.902 217.128 304.339C213.342 297.837 204.475 281.294 221.308 281.484C228.829 281.569 234.67 289.588 238.97 295.247C251.844 267.502 279.817 265.035 270.08 291.639C341.965 281.309 392.716 325.365 427.381 379.686C428.032 380.708 439.876 387.582 441.898 388.767C442.089 397.992 429.683 402.723 422.543 405.115C423.228 426.021 419.126 442.316 401.111 454.67C399.746 461.495 398.488 466.359 396.53 473.037C402.89 492.307 407.541 506.765 408.075 527.156C409.481 580.824 364.801 611.79 314.673 611.616C305.136 611.587 295.123 610.785 285.417 610.766C327.214 656.195 401.292 641.268 420.114 702.099C434.313 677.571 451.874 663.321 474.047 646.953C474.888 633.408 481.318 628.961 489.696 620.637L490.993 615.764C490.875 612.167 491.959 606.695 492.776 603.118C460.742 582.902 450.376 564.823 458.112 526.706C443.018 521.33 445.456 517.123 448.063 507.142C448.552 505.269 441.528 499.612 440.184 497.488C424.17 472.166 437.834 452 460.313 442.396C464.719 400.661 470.126 365.107 504.536 337.263C529.874 316.76 574.961 314.987 605.739 318.282C695.943 327.94 771.789 414.968 761.263 506.02C757.151 543.167 738.343 577.121 709.035 600.324C699.416 607.894 688.496 614.981 676.667 618.461L679.488 619.467C710.773 631.542 737.943 664.123 753.986 692.586C755.032 691.764 758.966 688.602 759.466 687.761C766.662 675.618 770.273 649.873 772.915 636.076C794.526 527.213 805.772 416.543 806.504 305.555C807.798 209.963 822.698 218.335 727.173 207.149C523.969 185.291 318.813 189.251 116.605 218.934C68.1594 226.139 79.1953 248.655 79.3278 285.189C79.6826 364.91 84.4319 444.55 93.5563 523.747C98.6585 567.385 105.365 608.9 111.864 652.202C125.071 642.68 139.8 634.52 153.934 626.437ZM174.651 480.09C157.826 493.211 154.583 506.343 150.598 526.099C158.739 551.346 177.823 558.259 198.73 541.011C202.767 544.366 207.248 556.229 210.379 560.357C220.918 574.24 248.588 593.847 265.236 597.569C313.184 609.18 379.898 606.415 395.686 546.541C402.084 522.282 394.9 494.486 388.376 470.831C380.796 477.025 374.322 488.474 369.458 488.717C358.179 477.313 384.836 460.699 393.28 456.885C394.121 450.806 394.693 446.107 395.06 439.946C386.361 434.911 377.297 432.714 368.857 427.993C368.379 426.488 367.965 425.183 367.614 424.079C369.732 417.782 383.655 423.82 388.301 425.802C390.941 426.917 393.539 428.129 396.091 429.436C396.27 422.677 396.563 415.556 396.543 408.829C381.912 403.766 379.383 401.485 368.712 390.101C364.952 390.848 355.548 391.388 353.995 392.422L354.061 393.296C354.677 402.162 348.707 404.79 340.942 404.564C329.534 404.234 313.322 394.958 304.422 388.274C297.59 414.285 281.682 415.82 260.233 403.194C261.2 408.581 261.745 412.19 259.557 417.658C254.822 429.489 240.561 412.861 235.615 419.389C228.835 428.338 224.783 442.264 225.736 453.614C225.04 469.589 241.432 496.825 236.156 506.315C233.338 507.378 230.35 504.925 227.739 503.361C225.377 505.401 214.036 531.011 205.643 522.539C204.09 517.933 203.788 510.34 203.09 508.668C198.428 497.492 184.596 485.842 174.651 480.09ZM475.329 421.703C480.437 418.616 498.422 409.653 503.253 417.263C503.131 418.61 503.037 419.701 501.633 420.339C487.721 426.667 480.203 428.859 469.146 440.497C493.183 438.441 511.619 447.081 521.449 469.724C525.199 454.234 530.042 444.696 544.793 435.237C574.867 415.953 643.008 424.411 634.771 472.187C634.032 476.472 628.184 482.931 627.674 486.806L628.45 487.174C649.237 497.188 627.901 524.189 598.559 507.779C597.911 507.416 597.268 507.043 596.631 506.66C590.805 507.826 584.951 508.854 579.075 509.741C582.22 513.738 592.026 522.459 591.959 523.819C590.228 524.214 589.175 524.458 587.41 524.639C577.157 544.743 570.993 560.579 547.969 568.401C533.953 565.655 525.775 561.71 526.349 546.348C526.728 536.197 516.039 544.521 509.609 532.602C512.178 531.825 520.647 535.752 524.969 536.1C536.785 537.038 553.541 529.536 563.409 523.473C567.362 520.587 571.496 517.979 574.261 513.961L574.575 511.606C568.607 505.357 533.437 514.117 522.246 475.583C521.873 481.547 521.769 485.613 520.263 491.478L521.416 493.355L520.107 492.252L520.232 494.392C523.323 492.318 523.204 491.132 526.099 491.533C528.026 495.092 528.03 500.984 524.043 503.252C520.52 503.114 512.235 500.689 510.671 502.798C500.694 516.251 521.532 516.906 524.109 518.813C522.28 523.865 515.837 524.361 511.417 522.426C506.462 520.259 504.071 517.136 501.399 512.671C499.164 513.391 486.788 516.931 486.303 517.637C480.546 526.029 480.788 527.187 468.36 528.146C465.035 544.975 462.743 559.767 473.048 575.1C482.423 589.051 498.634 598.381 515.115 601.214C547.878 606.84 581.627 603.727 609.717 584.44C629.845 570.634 644.034 551.559 650.287 527.519C651.991 520.969 650.078 506.374 649.067 499.44C643.032 458.08 624.772 418.644 601.846 384.046C594.657 373.198 577.396 351.099 564.197 348.913C561.94 348.538 556.081 348.11 553.66 348.291C508.449 353.45 487.82 380.724 475.329 421.703ZM210.011 570.924C208.848 580.108 209.167 587.533 206.69 596.515C233.824 608.503 261.565 627.298 281.066 649.863L282.155 650.018C279.844 634.191 279.903 625.577 281.748 609.393C252.863 605.158 229.468 593.054 210.011 570.924ZM416.423 716.475C411.11 695.08 405.874 683.353 385.737 671.248C368.532 660.913 347.894 654.407 328.925 647.736C334.497 652.212 342.082 657.994 347.12 662.789C344.52 674.004 328.351 709.215 322.224 718.708C308.019 705.492 303.518 689.318 290.811 673.839C286.545 686.814 276.872 711.902 268.774 723.03C237.139 714.87 178.218 659.811 158.931 633.031C143.74 642.486 125.195 651.806 114.129 665.515C116.438 678.731 117.463 697.942 129.501 706.246C157.032 725.244 335.235 727.158 373.835 727.236C385.767 727.265 405.155 728.995 416.332 726.733C417.116 726.578 417.596 726.24 418.257 725.824L418.245 723.939C417.868 721.715 417 718.728 416.423 716.475ZM320.94 698.164C322.669 694.713 324.829 690.652 326.289 687.152C328.644 682.454 335.17 670.108 336.549 665.738C323.795 652.609 303.667 635.052 288.227 624.978C288.772 650.269 291.233 661.358 307.344 681.699C312.006 687.587 315.293 692.508 320.94 698.164ZM527.203 334.615C507.151 341.197 487.627 364.702 480.834 384.262C484.567 378.563 490.199 370.335 495.245 365.676C511.48 349.468 533.393 340.228 556.331 339.915C546.046 335.685 538.667 333.156 527.203 334.615ZM486.812 469.596C480.947 473.227 477.016 475.692 472.231 480.952C473.485 490.039 475.317 496.334 477.799 505.23L484.478 510.189C489.602 508.951 495.217 507.764 500.114 505.919C504.556 496.783 504.678 497.757 513.581 493.57C523.478 462.836 501.156 447.994 472.746 446.784L469.85 447.953C468.751 452.618 469.948 458.573 470.445 463.587C477.237 460.154 478.34 459.943 485.725 458.011L486.219 457.885C498.096 461.039 504.848 468.184 511.821 477.957C519.761 489.086 496.245 503.282 486.997 493.198L486.423 491.48C487.971 490.309 489.494 489.104 490.99 487.867C489.606 482.871 484.271 484.828 481.026 481.199C481.158 475.953 487.834 471.929 491.758 469.105L490.636 468.711L491.506 468.473L490.835 469.228C488.511 468.347 489.545 468.376 486.812 469.596ZM461.025 501.732L468.473 501.381C468.3 499.849 465.862 491.751 465.257 488.855C455.134 486.008 454.047 486.609 445.982 480.148C449.796 480.063 455.592 480.384 458.758 478.77C463.012 473.715 462.993 454.602 459.982 450.374C427.79 465.089 440.169 504.079 461.025 501.732ZM614.882 507.029C621.549 506.688 627.415 506.558 629.716 498.957C628.534 492.43 624.367 492.59 618.594 492.385C613.178 492.948 605.888 494.065 604.683 500.601C606.363 505.728 609.812 506.201 614.882 507.029ZM476.606 511.415C467.699 507.526 465.798 507.333 456.141 508.594C453.035 511.837 453.411 510.557 452.662 514.564C456.592 522.858 474.051 523.617 478.642 517.093C478.973 514.106 478.832 513.935 476.606 511.415ZM578.843 521.902C569.835 527.733 562.383 532.442 552.388 536.554C548.048 538.343 535.067 540.557 533.012 542.287C532.387 546.271 533.656 551.694 535.265 555.291C544.357 547.489 557.637 538.12 570.357 541.33C572.642 537.434 579.829 526.29 579.306 522.297L578.843 521.902ZM699.922 661.329C678.895 666.627 675.182 682.048 658.565 692.141C647.115 699.102 597.321 700.716 593.392 716.852C596.465 717.925 626.602 714.223 632.16 713.633C672.873 708.963 704.065 704.081 743.866 696.201C739.703 685.576 728.813 666.55 717.763 662.576C711.703 660.401 706.297 660.981 699.922 661.329ZM478.624 653.469C459.575 668.735 433.228 691.329 424.292 714.716L426.824 726.656C457.188 725.718 487.878 723.919 517.95 723.049C518.987 711.593 519.757 703.897 522.464 692.586C523.953 686.369 527.008 677.813 528.171 672.302L527.998 668.454C505.031 666.153 499.165 666.501 478.624 653.469ZM576.312 433.289C508.804 444.081 518.847 507.575 582.342 502.31C586.937 501.667 591.663 501.127 596.138 499.945C605.979 482.551 624.264 490.131 627.767 471.587C633.451 441.494 600.591 431.304 576.312 433.289ZM187.904 597.704C175.841 606.502 171.813 612.428 164.405 625.122C172.316 633.36 179.738 642.573 187.505 650.607C208.158 671.983 236.537 698.019 262.383 712.589C270.978 697.101 277.472 682.164 284.763 666.047C261.198 639.373 223.151 606.483 187.904 597.704Z" fill="#451a03"/>
<path d="M779.787 682.909C783.704 682.977 785.357 682.068 787.759 685.519C786.779 695.352 775.46 717.917 764.625 718.903C754.702 720.44 751.141 726.753 739.215 728.097C692.486 733.366 644.869 739.989 598.17 744.445C558.994 748.177 518.493 747.617 479.153 750.362C395.767 754.52 295.728 757.874 213.474 746.427C213.555 743.923 213.15 744.997 214.675 743.073C220.043 743.363 225.965 744.455 229.54 739.96C236.363 742.193 265.943 743.769 274.608 744.175C398.574 749.918 524.948 741.526 648.171 727.855C685.67 723.698 725.697 724.191 762.134 713.102C766.062 710.24 771.308 705.803 773.883 701.703L774.238 701.123C777.277 696.289 779.324 688.555 779.787 682.909Z" fill="#FAF9FA"/>
<path d="M199.545 182.331C205.268 181.078 225.931 180.399 233.633 179.57C284.078 174.037 334.708 170.344 385.421 168.5C406.97 167.913 426.459 168.475 447.714 168.477C495.329 168.184 542.944 169.183 590.504 171.475C654.561 174.491 724.338 182.168 787.49 192.693C795.182 193.975 806.274 198.795 812.721 202.871C808.346 203.15 808.802 202.398 806.338 204.837L805.586 208.031C767.073 190.525 702.484 187.116 659.65 183.468C603.267 178.415 546.728 175.29 490.131 174.098C466.888 173.669 444.806 175.423 421.207 173.584C407.58 172.521 387.384 173.933 373.471 174.867C335.728 177.399 297.899 178.942 260.224 182.318C241.071 184.188 222.417 186.846 203.172 188.132C202.95 186.226 202.671 185.423 202.112 183.577L199.545 182.331Z" fill="#EEECED"/>
<path d="M825.783 225.774C831.274 246.229 829.17 298.629 828.099 321.336C826.288 369.052 823.07 416.704 818.45 464.231C815.56 493.797 811.125 523.408 808.758 552.952C807.76 565.404 806.821 577.731 805.582 590.164C802.756 616.529 798.395 642.719 792.523 668.581C791.535 672.777 789.969 681.923 788.127 685.239L787.759 685.519C785.357 682.068 783.704 682.977 779.787 682.909C782.528 673.299 789.811 649.796 790.706 640.486C796.604 578.997 806.232 517.857 812.172 456.412C815.883 416.054 818.472 375.6 819.937 335.098C821.206 303.277 822.802 271.113 819.782 239.408C821.99 238.91 822.139 238.794 824.114 237.642C826.152 234.085 825.766 229.91 825.783 225.774Z" fill="#EEECED"/>
<path d="M54.3273 252.899C60.4408 255.78 58.8242 256.206 63.9738 254.601C62.5477 281.373 63.0292 332.385 64.5626 358.799C67.8113 408.705 72.5819 458.5 78.8685 508.115C80.4213 520.736 82.6654 532.928 84.1544 545.623C87.6042 576.677 91.3451 607.711 95.3779 638.697C97.566 654.997 102.819 714.426 120.639 719.656L118.685 720.846C118.698 723.881 120.042 725.128 121.867 727.507C106.186 722.789 106.875 713.082 101.846 700.137C93.7197 679.215 92.4231 661.668 89.5999 639.886L81.0498 575.285C70.4673 496.472 60.1266 417.624 55.1859 338.23C53.3295 308.395 52.7841 282.742 54.3273 252.899Z" fill="#EEECED"/>
<path d="M54.3274 252.899C54.5768 251.956 54.8572 246.1 54.7741 244.971C52.7533 217.698 73.2898 198.384 98.9806 194.461C103.037 193.841 107.568 193.485 111.859 192.831C117.398 197.328 120.78 191.43 121.81 197.535C105.765 199.12 83.5425 201.528 72.5598 214.719C65.2657 223.48 62.6793 243.457 63.9739 254.601C58.8243 256.206 60.4409 255.779 54.3274 252.899Z" fill="#FAF9FA"/>
<path d="M111.859 192.831L194.438 182.386L199.545 182.331L202.112 183.577C202.671 185.424 202.951 186.226 203.172 188.133L197.417 189.297C175.685 189.849 144.257 195.706 121.81 197.535C120.78 191.431 117.398 197.328 111.859 192.831Z" fill="#EEECED"/>
<path d="M194.438 182.386L199.545 182.331L202.112 183.577C202.671 185.424 202.95 186.226 203.172 188.133L197.417 189.297C195.715 188.152 194.692 187.603 193.352 186.069L194.438 182.386Z" fill="#FAF9FA"/>
<path d="M120.64 719.656C136.185 726.114 150.096 728.512 166.502 731.209C169.691 731.731 184.154 734.284 186.363 735.135L188.956 738.074C188.248 740.8 188.105 740.249 185.841 742.598C171.286 740.307 157.663 738.161 143.505 733.897C138.962 732.524 125.504 727.362 121.868 727.507C120.042 725.128 118.698 723.881 118.686 720.845L120.64 719.656Z" fill="#FAF9FA"/>
<path d="M805.586 208.031L806.338 204.837C808.802 202.398 808.346 203.15 812.721 202.871C818.872 208.713 825.988 216.717 825.783 225.774C825.766 229.91 826.152 234.084 824.114 237.641C822.139 238.793 821.99 238.909 819.782 239.407C818.315 231.373 819.42 228.091 816.683 218.369C812.24 213.337 811.041 212.092 805.586 208.031Z" fill="#FAF9FA"/>
<path d="M186.363 735.135C204.376 739.369 214.86 737.416 229.54 739.959C225.965 744.455 220.043 743.362 214.675 743.072C213.15 744.996 213.555 743.923 213.474 746.427C205.59 746.234 193.396 744.696 185.841 742.598C188.105 740.249 188.248 740.8 188.956 738.074L186.363 735.135Z" fill="#EEECED"/>
<path d="M450.296 231.167C487.504 227.92 480.035 259.226 486.151 264.397C491.519 264.656 492.178 259.29 497.456 259.854C501.237 260.258 505.439 264.344 507.44 267.407C510.309 271.796 506.437 274.681 504.199 278.238C504.06 281.811 506.209 285.702 507.387 289.04C518.849 321.494 488.779 332.663 464.164 316.344C461.552 314.613 458.307 311.063 455.451 310.117L453.085 311.55C402.988 348.415 370.925 308.764 406.868 259.106C403.598 257.04 400.657 254.972 400.612 250.673C400.577 247.702 401.822 244.86 404.03 242.871C410.936 236.625 415.212 240.763 419.556 245.625C430.438 242.172 432.264 235.127 450.296 231.167ZM443.17 294.613C431.754 269.627 439.083 261.699 462.547 255.251C461.554 251.648 456.557 251.416 453.326 251.427C422.012 258.202 389.342 309.4 423.609 305.635C432.103 302.509 436.014 300.643 443.17 294.613ZM458.167 288.345C450.458 296.631 439.581 305.924 429.379 309.293C388.276 322.871 404.274 275.146 423.509 260.871C434.633 252.615 452.676 237.439 466.426 248.803C469.307 251.697 468.627 256.094 473.206 258.817C475.992 257.163 475.129 258.131 476.451 255.153C475.649 245.627 464.744 240.194 455.937 239.968C440.393 242.867 438.607 245.371 425.817 253.704C405.621 266.863 379.014 323.937 424.025 316.244C439.264 313.638 467.191 292.859 469.954 275.768L469.536 274.754L467.489 274.756C465.057 278.462 460.913 285.199 458.167 288.345ZM474.764 309.851C471.374 307.721 466.524 303.867 462.829 304.408C463.033 306.485 464.715 308.327 466.502 309.429C503.942 332.507 515.705 292.471 483.302 272.072C474.515 266.54 470.045 263.558 458.94 263.826C448.172 270.349 446.025 274.238 449.58 286.439L450.41 287.06C451.285 282.241 451.589 272.739 455.423 270.26C470.913 260.249 500.153 286.455 497.275 302.561C495.417 312.965 482.818 312.338 474.764 309.851ZM467.758 297.75C473.46 301.371 476.723 303.253 483.37 305.411C486.715 305.229 487.971 305.416 490.524 303.117C494.279 295.377 484.125 284.427 478.508 280.023C475.238 286.863 472.765 291.834 467.758 297.75Z" fill="#451a03"/>
<path d="M705.187 266.573C721.243 266.197 725.396 281.243 726.578 294.436C727.27 293.75 727.969 293.07 728.675 292.399C761.98 260.74 789.112 282.375 753.809 311.092C744.486 319.562 731.423 326.181 720.949 333.484C703.432 318.842 677.594 283.836 705.187 266.573Z" fill="#451a03"/>
<path d="M155.84 247.481C185.205 247.171 165.776 291.851 162.712 306.225C158.732 324.895 126.632 320.104 114.433 315.311C94.73 305.471 95.5925 287.5 118.565 285.371C125.196 284.756 131.493 287.758 137.601 290.209C135.35 271.788 136.298 255.625 155.84 247.481Z" fill="#451a03"/>
<path d="M294.781 512.206C296.586 512.161 298.32 512.438 300.114 512.655C302.419 514.438 303.433 514.882 304.408 517.615C303.903 518.6 299.424 519.998 297.44 521.071C297.45 526.928 311.918 535.772 317.518 537.425C325.747 539.861 346.231 533.053 350.951 539.475C350.809 542.191 350.337 542.559 348.531 544.657C334.377 551.869 305.038 547.238 296.923 532.839C295.392 530.121 293.555 527.831 291.65 525.363C289.066 527.993 289.967 527.886 286.995 528.375C281.985 521.958 289.906 515.59 294.781 512.206Z" fill="#451a03"/>
<path d="M306.629 476.058C314.999 475.822 331.285 479.823 332.547 491.088C332.757 492.969 332.312 493.238 331.077 494.435C330.181 494.399 321.285 489.041 318.58 487.796C314.567 486.578 312.239 485.913 308.07 485.68C302.302 485.356 290.079 489.502 285.621 486.472C285.738 477.583 300.221 476.544 306.629 476.058Z" fill="#451a03"/>
<path d="M234.743 432.868L235.803 433.804C236.779 435.796 238.445 447.419 238.156 449.807C237.212 457.587 246.594 482.447 241.594 486.648C231.522 470.031 221.56 451.532 234.743 432.868Z" fill="#451a03" fill-opacity="0.0588235"/>
<path d="M167.204 502.992C181.084 502.201 195.886 517.518 190.567 527.946L188.594 528.523C185.202 526.294 184.139 522.531 182.011 518.485L179.22 518.624C177.126 520.557 173.924 524.294 171.896 526.524L169.639 525.071L169.526 526.895L168.525 526.863L167.965 524.768C169.141 523.925 168.988 524.305 169.556 523.165L166.495 523.534C166.942 517.272 172.888 515.511 176.837 510.48C173.728 506.536 171.314 510.766 164.97 506.03L164.914 504.334L167.204 502.992Z" fill="#451a03" fill-opacity="0.980392"/>
<path d="M352.783 491.042C365.247 496.721 385.778 523.118 356.933 524.611C352.638 523.568 350.572 523.466 348.652 519.25C352.053 515.907 362.433 517.2 363.638 513.339C366.312 504.777 354.155 502.288 352.783 491.042Z" fill="#451a03"/>
<path d="M293.253 433.672C297.197 434.539 297.236 433.887 299.578 436.372C299.724 438.904 299.781 439.094 299.089 441.494C290.34 445.821 286.218 452.847 278.274 457.597C274.446 456.545 273.893 455.403 273.867 451.912C277.12 444.819 286.487 437.413 293.253 433.672Z" fill="#451a03"/>
<path d="M293.253 433.672C298.452 431.034 307.605 426.58 313.397 429.409C315.527 435.447 303.545 439.29 299.089 441.494C299.781 439.093 299.724 438.904 299.578 436.372C297.236 433.887 297.197 434.539 293.253 433.672Z" fill="#451a03"/>
<path d="M562.013 413.286C557.028 412.936 550.52 414.199 548.66 409.052C552.146 404.293 561.031 403.929 566.419 404.368C575.103 405.125 595.251 407.257 595.778 418.805C590.7 420.021 573.43 413.478 562.013 413.286Z" fill="#451a03"/>
<path d="M562.013 413.286C557.028 412.936 550.52 414.199 548.66 409.052C552.146 404.293 561.031 403.929 566.419 404.368L567.049 404.632C569.872 405.791 577.398 408.324 580.32 409.172C571.693 408.004 569.088 409.371 562.013 413.286Z" fill="#451a03"/>
<path d="M570.566 443.971C585.991 445.013 588.499 451.143 600.345 458.688C607.983 463.551 614.016 461.063 621.821 458.767C616.684 466.26 615.17 467.533 607.255 472.072C603.26 469.538 596.825 464.509 592.816 461.564C592.738 469.802 591.718 471.955 588.675 479.626L589.328 480.686C591.433 479.306 592.591 478.034 594.799 477.962C594.336 487.153 580.164 489.74 572.685 491.198C569.031 490.925 560.801 490.939 559.001 487.716C559.967 486.617 560.781 485.669 561.687 484.503C559.904 482.876 557.604 481.411 557.153 479.459C560.202 478.633 561.369 478.225 564.291 477.007L564.949 475.127C561.43 467.697 558.381 473.524 552.292 471.182C550.892 466.162 554.409 465.108 553.233 462.08C549.427 465.171 540.197 479.511 540.431 484.16C532.157 465.458 552.731 447.058 570.566 443.971Z" fill="#451a03"/>
<path d="M676.667 618.462L679.488 619.467C645.631 648.326 572.167 671.442 528.171 672.303L527.998 668.455C532.145 666.676 556.51 664.801 564.661 663.08C611.029 653.296 636.484 640.563 676.667 618.462Z" fill="#451a03"/>
<path d="M661.331 363.989C661.485 362.51 661.68 362.474 662.348 361.05C665.305 359.906 671.214 362.222 674.767 363.156C682.378 367.403 692.166 378.13 698.03 384.726C702.666 389.064 712.202 401.875 712.577 408.122L711.73 408.868C706.474 407.854 701.058 398.772 696.52 394.476C684.1 381.638 675.775 374.418 661.331 363.989Z" fill="#FAF9FA"/>
<path d="M698.03 384.726C702.666 389.064 712.202 401.875 712.577 408.122L711.73 408.868C706.474 407.854 701.058 398.772 696.52 394.476C697.996 394.114 699.402 393.625 700.897 394.109L702.111 393.11C700.14 390.211 698.573 388.271 698.03 384.726Z" fill="#451a03"/>
<path d="M490.993 615.765C526.638 635.168 533.39 632.336 573.524 633.302C551.609 639.906 521.943 640.273 501.328 629.058C497.123 626.738 493.217 623.905 489.696 620.637L490.993 615.765Z" fill="#FAF9FA"/>
<path d="M315.738 331.08C323.277 332.589 338.437 342.669 341.628 350.089C343.192 353.723 341.473 355.785 340.004 358.936C334.409 356.306 317.254 343.359 313.068 338.464C312.742 335.407 314.128 333.813 315.738 331.08Z" fill="#FAF9FA"/>
<path d="M661.331 363.988C654.321 359.702 632.661 349.223 629.719 343.779L630.456 342.356C641.656 340.156 666.499 355.846 674.766 363.156C671.214 362.222 665.305 359.905 662.348 361.049C661.68 362.473 661.484 362.51 661.331 363.988Z" fill="#EEECED"/>
<path d="M692.745 463.617C707.781 463.422 713.769 494.963 708.628 507.34C695.671 503.932 709.807 482.329 692.745 463.617Z" fill="#EEECED"/>
<path d="M331.592 324.24C337.437 324.696 350.74 332.574 353.218 338.436C354.275 340.939 352.835 343.693 351.875 346.01C347.95 344.878 333.436 335.89 330.877 331.765C329.334 329.277 330.723 327.031 331.592 324.24Z" fill="#FAF9FA"/>
<path d="M184.474 368.431C185.283 368.722 188.141 369.756 188.711 370.176C195.225 374.964 186.336 388.793 182.67 393.29C169.007 389.083 179.527 377.15 184.474 368.431Z" fill="#FAF9FA"/>
<path d="M199.598 379.487C210.99 385.026 203.336 394.827 197.515 402.299C195.759 401.442 193.97 400.613 192.203 399.777C186.723 392.516 194.259 384.342 199.598 379.487Z" fill="#FAF9FA"/>
<path d="M456.141 508.594C465.798 507.333 467.699 507.527 476.606 511.415C472.49 519.579 461.771 511.183 456.141 508.594Z" fill="#451a03" fill-opacity="0.0156863"/>
<path d="M416.423 716.476C417 718.728 417.868 721.716 418.245 723.939C415.283 725.041 414.464 725.554 411.401 724.626L410.783 721.493C412.264 718.013 411.335 719.25 414.552 716.882L415.179 717.684L416.423 716.476Z" fill="#451a03" fill-opacity="0.0117647"/>
</svg>
