<?xml version="1.0" standalone="no"?>
<svg xmlns="http://www.w3.org/2000/svg" width="500" height="500"><defs><clipPath id="clip-path-dot-color"><path d="M 24 112v 11h 11v -5.5a 5.5 5.5, 0, 0, 0, -5.5 -5.5" transform="rotate(-90,29.5,117.5)"/><rect x="24" y="123" width="11" height="11" transform="rotate(0,29.5,128.5)"/><path d="M 24 134v 11h 5.5a 5.5 5.5, 0, 0, 0, 0 -11" transform="rotate(90,29.5,139.5)"/><path d="M 24 156v 11h 11v -5.5a 5.5 5.5, 0, 0, 0, -5.5 -5.5" transform="rotate(-90,29.5,161.5)"/><rect x="24" y="167" width="11" height="11" transform="rotate(0,29.5,172.5)"/><path d="M 24 178v 11h 11v -5.5a 5.5 5.5, 0, 0, 0, -5.5 -5.5" transform="rotate(180,29.5,183.5)"/><path d="M 24 211v 11h 11v -5.5a 5.5 5.5, 0, 0, 0, -5.5 -5.5" transform="rotate(-90,29.5,216.5)"/><rect x="24" y="222" width="11" height="11" transform="rotate(0,29.5,227.5)"/><path d="M 24 233v 11h 11v -5.5a 5.5 5.5, 0, 0, 0, -5.5 -5.5" transform="rotate(180,29.5,238.5)"/><circle cx="29.5" cy="271.5" r="5.5" transform="rotate(0,29.5,271.5)"/><circle cx="29.5" cy="293.5" r="5.5" transform="rotate(0,29.5,293.5)"/><path d="M 24 310v 11h 11v -5.5a 5.5 5.5, 0, 0, 0, -5.5 -5.5" transform="rotate(-90,29.5,315.5)"/><path d="M 24 321v 11h 5.5a 5.5 5.5, 0, 0, 0, 0 -11" transform="rotate(90,29.5,326.5)"/><path d="M 35 112v 11h 5.5a 5.5 5.5, 0, 0, 0, 0 -11" transform="rotate(0,40.5,117.5)"/><path d="M 35 156v 11h 5.5a 5.5 5.5, 0, 0, 0, 0 -11" transform="rotate(0,40.5,161.5)"/><path d="M 35 178v 11h 5.5a 5.5 5.5, 0, 0, 0, 0 -11" transform="rotate(0,40.5,183.5)"/><path d="M 35 211v 11h 11v -5.5a 5.5 5.5, 0, 0, 0, -5.5 -5.5" transform="rotate(0,40.5,216.5)"/><rect x="35" y="222" width="11" height="11" transform="rotate(0,40.5,227.5)"/><path d="M 35 233v 11h 11v -5.5a 5.5 5.5, 0, 0, 0, -5.5 -5.5" transform="rotate(90,40.5,238.5)"/><path d="M 35 255v 11h 5.5a 5.5 5.5, 0, 0, 0, 0 -11" transform="rotate(180,40.5,260.5)"/><path d="M 35 277v 11h 5.5a 5.5 5.5, 0, 0, 0, 0 -11" transform="rotate(180,40.5,282.5)"/><path d="M 35 299v 11h 11v -5.5a 5.5 5.5, 0, 0, 0, -5.5 -5.5" transform="rotate(-90,40.5,304.5)"/><path d="M 35 310v 11h 11v -5.5a 5.5 5.5, 0, 0, 0, -5.5 -5.5" transform="rotate(90,40.5,315.5)"/><path d="M 35 332v 11h 5.5a 5.5 5.5, 0, 0, 0, 0 -11" transform="rotate(180,40.5,337.5)"/><circle cx="40.5" cy="381.5" r="5.5" transform="rotate(0,40.5,381.5)"/><circle cx="51.5" cy="172.5" r="5.5" transform="rotate(0,51.5,172.5)"/><circle cx="51.5" cy="205.5" r="5.5" transform="rotate(0,51.5,205.5)"/><rect x="46" y="222" width="11" height="11" transform="rotate(0,51.5,227.5)"/><path d="M 46 244v 11h 5.5a 5.5 5.5, 0, 0, 0, 0 -11" transform="rotate(-90,51.5,249.5)"/><rect x="46" y="255" width="11" height="11" transform="rotate(0,51.5,260.5)"/><rect x="46" y="266" width="11" height="11" transform="rotate(0,51.5,271.5)"/><rect x="46" y="277" width="11" height="11" transform="rotate(0,51.5,282.5)"/><rect x="46" y="288" width="11" height="11" transform="rotate(0,51.5,293.5)"/><path d="M 46 299v 11h 11v -5.5a 5.5 5.5, 0, 0, 0, -5.5 -5.5" transform="rotate(90,51.5,304.5)"/><path d="M 46 321v 11h 11v -5.5a 5.5 5.5, 0, 0, 0, -5.5 -5.5" transform="rotate(-90,51.5,326.5)"/><path d="M 46 332v 11h 11v -5.5a 5.5 5.5, 0, 0, 0, -5.5 -5.5" transform="rotate(90,51.5,337.5)"/><circle cx="51.5" cy="359.5" r="5.5" transform="rotate(0,51.5,359.5)"/><circle cx="62.5" cy="139.5" r="5.5" transform="rotate(0,62.5,139.5)"/><path d="M 57 156v 11h 5.5a 5.5 5.5, 0, 0, 0, 0 -11" transform="rotate(180,62.5,161.5)"/><path d="M 57 178v 11h 5.5a 5.5 5.5, 0, 0, 0, 0 -11" transform="rotate(-90,62.5,183.5)"/><path d="M 57 189v 11h 5.5a 5.5 5.5, 0, 0, 0, 0 -11" transform="rotate(90,62.5,194.5)"/><path d="M 57 211v 11h 11v -5.5a 5.5 5.5, 0, 0, 0, -5.5 -5.5" transform="rotate(-90,62.5,216.5)"/><rect x="57" y="222" width="11" height="11" transform="rotate(0,62.5,227.5)"/><path d="M 57 233v 11h 5.5a 5.5 5.5, 0, 0, 0, 0 -11" transform="rotate(90,62.5,238.5)"/><path d="M 57 255v 11h 5.5a 5.5 5.5, 0, 0, 0, 0 -11" transform="rotate(0,62.5,260.5)"/><path d="M 57 321v 11h 5.5a 5.5 5.5, 0, 0, 0, 0 -11" transform="rotate(0,62.5,326.5)"/><circle cx="62.5" cy="348.5" r="5.5" transform="rotate(0,62.5,348.5)"/><circle cx="62.5" cy="381.5" r="5.5" transform="rotate(0,62.5,381.5)"/><path d="M 68 145v 11h 11v -5.5a 5.5 5.5, 0, 0, 0, -5.5 -5.5" transform="rotate(-90,73.5,150.5)"/><path d="M 68 156v 11h 11v -5.5a 5.5 5.5, 0, 0, 0, -5.5 -5.5" transform="rotate(90,73.5,161.5)"/><path d="M 68 200v 11h 11v -5.5a 5.5 5.5, 0, 0, 0, -5.5 -5.5" transform="rotate(-90,73.5,205.5)"/><path d="M 68 211v 11h 11v -5.5a 5.5 5.5, 0, 0, 0, -5.5 -5.5" transform="rotate(90,73.5,216.5)"/><path d="M 68 244v 11h 5.5a 5.5 5.5, 0, 0, 0, 0 -11" transform="rotate(180,73.5,249.5)"/><path d="M 68 266v 11h 11v -5.5a 5.5 5.5, 0, 0, 0, -5.5 -5.5" transform="rotate(-90,73.5,271.5)"/><rect x="68" y="277" width="11" height="11" transform="rotate(0,73.5,282.5)"/><rect x="68" y="288" width="11" height="11" transform="rotate(0,73.5,293.5)"/><path d="M 68 299v 11h 11v -5.5a 5.5 5.5, 0, 0, 0, -5.5 -5.5" transform="rotate(180,73.5,304.5)"/><path d="M 68 354v 11h 5.5a 5.5 5.5, 0, 0, 0, 0 -11" transform="rotate(-90,73.5,359.5)"/><path d="M 68 365v 11h 5.5a 5.5 5.5, 0, 0, 0, 0 -11" transform="rotate(90,73.5,370.5)"/><path d="M 79 134v 11h 11v -5.5a 5.5 5.5, 0, 0, 0, -5.5 -5.5" transform="rotate(-90,84.5,139.5)"/><path d="M 79 145v 11h 11v -5.5a 5.5 5.5, 0, 0, 0, -5.5 -5.5" transform="rotate(90,84.5,150.5)"/><path d="M 79 178v 11h 11v -5.5a 5.5 5.5, 0, 0, 0, -5.5 -5.5" transform="rotate(-90,84.5,183.5)"/><rect x="79" y="189" width="11" height="11" transform="rotate(0,84.5,194.5)"/><rect x="79" y="200" width="11" height="11" transform="rotate(0,84.5,205.5)"/><path d="M 79 222v 11h 5.5a 5.5 5.5, 0, 0, 0, 0 -11" transform="rotate(180,84.5,227.5)"/><rect x="79" y="244" width="11" height="11" transform="rotate(0,84.5,249.5)"/><rect x="79" y="255" width="11" height="11" transform="rotate(0,84.5,260.5)"/><rect x="79" y="266" width="11" height="11" transform="rotate(0,84.5,271.5)"/><path d="M 79 299v 11h 11v -5.5a 5.5 5.5, 0, 0, 0, -5.5 -5.5" transform="rotate(0,84.5,304.5)"/><path d="M 79 310v 11h 11v -5.5a 5.5 5.5, 0, 0, 0, -5.5 -5.5" transform="rotate(180,84.5,315.5)"/><path d="M 79 332v 11h 11v -5.5a 5.5 5.5, 0, 0, 0, -5.5 -5.5" transform="rotate(-90,84.5,337.5)"/><path d="M 79 343v 11h 5.5a 5.5 5.5, 0, 0, 0, 0 -11" transform="rotate(90,84.5,348.5)"/><path d="M 79 376v 11h 5.5a 5.5 5.5, 0, 0, 0, 0 -11" transform="rotate(180,84.5,381.5)"/><circle cx="95.5" cy="117.5" r="5.5" transform="rotate(0,95.5,117.5)"/><rect x="90" y="134" width="11" height="11" transform="rotate(0,95.5,139.5)"/><path d="M 90 156v 11h 5.5a 5.5 5.5, 0, 0, 0, 0 -11" transform="rotate(180,95.5,161.5)"/><path d="M 90 178v 11h 5.5a 5.5 5.5, 0, 0, 0, 0 -11" transform="rotate(0,95.5,183.5)"/><path d="M 90 200v 11h 5.5a 5.5 5.5, 0, 0, 0, 0 -11" transform="rotate(0,95.5,205.5)"/><rect x="90" y="222" width="11" height="11" transform="rotate(0,95.5,227.5)"/><path d="M 90 244v 11h 5.5a 5.5 5.5, 0, 0, 0, 0 -11" transform="rotate(0,95.5,249.5)"/><rect x="90" y="266" width="11" height="11" transform="rotate(0,95.5,271.5)"/><circle cx="95.5" cy="293.5" r="5.5" transform="rotate(0,95.5,293.5)"/><rect x="90" y="310" width="11" height="11" transform="rotate(0,95.5,315.5)"/><rect x="90" y="332" width="11" height="11" transform="rotate(0,95.5,337.5)"/><circle cx="95.5" cy="359.5" r="5.5" transform="rotate(0,95.5,359.5)"/><path d="M 90 376v 11h 5.5a 5.5 5.5, 0, 0, 0, 0 -11" transform="rotate(0,95.5,381.5)"/><path d="M 101 123v 11h 11v -5.5a 5.5 5.5, 0, 0, 0, -5.5 -5.5" transform="rotate(-90,106.5,128.5)"/><rect x="101" y="134" width="11" height="11" transform="rotate(0,106.5,139.5)"/><rect x="101" y="145" width="11" height="11" transform="rotate(0,106.5,150.5)"/><rect x="101" y="156" width="11" height="11" transform="rotate(0,106.5,161.5)"/><path d="M 101 189v 11h 5.5a 5.5 5.5, 0, 0, 0, 0 -11" transform="rotate(180,106.5,194.5)"/><path d="M 101 222v 11h 5.5a 5.5 5.5, 0, 0, 0, 0 -11" transform="rotate(0,106.5,227.5)"/><path d="M 101 255v 11h 11v -5.5a 5.5 5.5, 0, 0, 0, -5.5 -5.5" transform="rotate(-90,106.5,260.5)"/><path d="M 101 266v 11h 11v -5.5a 5.5 5.5, 0, 0, 0, -5.5 -5.5" transform="rotate(90,106.5,271.5)"/><rect x="101" y="310" width="11" height="11" transform="rotate(0,106.5,315.5)"/><rect x="101" y="321" width="11" height="11" transform="rotate(0,106.5,326.5)"/><path d="M 101 332v 11h 11v -5.5a 5.5 5.5, 0, 0, 0, -5.5 -5.5" transform="rotate(90,106.5,337.5)"/><circle cx="106.5" cy="370.5" r="5.5" transform="rotate(0,106.5,370.5)"/><path d="M 112 35v 11h 5.5a 5.5 5.5, 0, 0, 0, 0 -11" transform="rotate(180,117.5,40.5)"/><path d="M 112 90v 11h 5.5a 5.5 5.5, 0, 0, 0, 0 -11" transform="rotate(-90,117.5,95.5)"/><rect x="112" y="101" width="11" height="11" transform="rotate(0,117.5,106.5)"/><rect x="112" y="112" width="11" height="11" transform="rotate(0,117.5,117.5)"/><rect x="112" y="123" width="11" height="11" transform="rotate(0,117.5,128.5)"/><path d="M 112 145v 11h 11v -5.5a 5.5 5.5, 0, 0, 0, -5.5 -5.5" transform="rotate(0,117.5,150.5)"/><rect x="112" y="156" width="11" height="11" transform="rotate(0,117.5,161.5)"/><rect x="112" y="167" width="11" height="11" transform="rotate(0,117.5,172.5)"/><rect x="112" y="178" width="11" height="11" transform="rotate(0,117.5,183.5)"/><path d="M 112 189v 11h 11v -5.5a 5.5 5.5, 0, 0, 0, -5.5 -5.5" transform="rotate(90,117.5,194.5)"/><path d="M 112 211v 11h 5.5a 5.5 5.5, 0, 0, 0, 0 -11" transform="rotate(180,117.5,216.5)"/><path d="M 112 233v 11h 5.5a 5.5 5.5, 0, 0, 0, 0 -11" transform="rotate(-90,117.5,238.5)"/><rect x="112" y="244" width="11" height="11" transform="rotate(0,117.5,249.5)"/><path d="M 112 255v 11h 11v -5.5a 5.5 5.5, 0, 0, 0, -5.5 -5.5" transform="rotate(90,117.5,260.5)"/><path d="M 112 299v 11h 11v -5.5a 5.5 5.5, 0, 0, 0, -5.5 -5.5" transform="rotate(-90,117.5,304.5)"/><rect x="112" y="310" width="11" height="11" transform="rotate(0,117.5,315.5)"/><path d="M 112 343v 11h 5.5a 5.5 5.5, 0, 0, 0, 0 -11" transform="rotate(180,117.5,348.5)"/><path d="M 112 376v 11h 5.5a 5.5 5.5, 0, 0, 0, 0 -11" transform="rotate(-90,117.5,381.5)"/><path d="M 112 387v 11h 11v -5.5a 5.5 5.5, 0, 0, 0, -5.5 -5.5" transform="rotate(180,117.5,392.5)"/><path d="M 112 453v 11h 5.5a 5.5 5.5, 0, 0, 0, 0 -11" transform="rotate(-90,117.5,458.5)"/><path d="M 112 464v 11h 5.5a 5.5 5.5, 0, 0, 0, 0 -11" transform="rotate(90,117.5,469.5)"/><path d="M 123 24v 11h 5.5a 5.5 5.5, 0, 0, 0, 0 -11" transform="rotate(-90,128.5,29.5)"/><rect x="123" y="35" width="11" height="11" transform="rotate(0,128.5,40.5)"/><rect x="123" y="46" width="11" height="11" transform="rotate(0,128.5,51.5)"/><rect x="123" y="57" width="11" height="11" transform="rotate(0,128.5,62.5)"/><rect x="123" y="68" width="11" height="11" transform="rotate(0,128.5,73.5)"/><path d="M 123 79v 11h 5.5a 5.5 5.5, 0, 0, 0, 0 -11" transform="rotate(90,128.5,84.5)"/><path d="M 123 123v 11h 5.5a 5.5 5.5, 0, 0, 0, 0 -11" transform="rotate(0,128.5,128.5)"/><path d="M 123 167v 11h 5.5a 5.5 5.5, 0, 0, 0, 0 -11" transform="rotate(0,128.5,172.5)"/><path d="M 123 200v 11h 11v -5.5a 5.5 5.5, 0, 0, 0, -5.5 -5.5" transform="rotate(-90,128.5,205.5)"/><rect x="123" y="211" width="11" height="11" transform="rotate(0,128.5,216.5)"/><path d="M 123 222v 11h 5.5a 5.5 5.5, 0, 0, 0, 0 -11" transform="rotate(90,128.5,227.5)"/><path d="M 123 266v 11h 5.5a 5.5 5.5, 0, 0, 0, 0 -11" transform="rotate(-90,128.5,271.5)"/><path d="M 123 277v 11h 5.5a 5.5 5.5, 0, 0, 0, 0 -11" transform="rotate(90,128.5,282.5)"/><rect x="123" y="299" width="11" height="11" transform="rotate(0,128.5,304.5)"/><rect x="123" y="310" width="11" height="11" transform="rotate(0,128.5,315.5)"/><path d="M 123 321v 11h 11v -5.5a 5.5 5.5, 0, 0, 0, -5.5 -5.5" transform="rotate(180,128.5,326.5)"/><rect x="123" y="343" width="11" height="11" transform="rotate(0,128.5,348.5)"/><circle cx="128.5" cy="370.5" r="5.5" transform="rotate(0,128.5,370.5)"/><path d="M 123 387v 11h 5.5a 5.5 5.5, 0, 0, 0, 0 -11" transform="rotate(0,128.5,392.5)"/><path d="M 123 409v 11h 11v -5.5a 5.5 5.5, 0, 0, 0, -5.5 -5.5" transform="rotate(-90,128.5,414.5)"/><path d="M 123 420v 11h 5.5a 5.5 5.5, 0, 0, 0, 0 -11" transform="rotate(90,128.5,425.5)"/><rect x="134" y="35" width="11" height="11" transform="rotate(0,139.5,40.5)"/><path d="M 134 46v 11h 11v -5.5a 5.5 5.5, 0, 0, 0, -5.5 -5.5" transform="rotate(90,139.5,51.5)"/><path d="M 134 90v 11h 5.5a 5.5 5.5, 0, 0, 0, 0 -11" transform="rotate(-90,139.5,95.5)"/><path d="M 134 101v 11h 5.5a 5.5 5.5, 0, 0, 0, 0 -11" transform="rotate(90,139.5,106.5)"/><path d="M 134 134v 11h 5.5a 5.5 5.5, 0, 0, 0, 0 -11" transform="rotate(-90,139.5,139.5)"/><rect x="134" y="145" width="11" height="11" transform="rotate(0,139.5,150.5)"/><path d="M 134 156v 11h 11v -5.5a 5.5 5.5, 0, 0, 0, -5.5 -5.5" transform="rotate(180,139.5,161.5)"/><path d="M 134 178v 11h 5.5a 5.5 5.5, 0, 0, 0, 0 -11" transform="rotate(-90,139.5,183.5)"/><rect x="134" y="189" width="11" height="11" transform="rotate(0,139.5,194.5)"/><path d="M 134 200v 11h 11v -5.5a 5.5 5.5, 0, 0, 0, -5.5 -5.5" transform="rotate(90,139.5,205.5)"/><path d="M 134 244v 11h 11v -5.5a 5.5 5.5, 0, 0, 0, -5.5 -5.5" transform="rotate(-90,139.5,249.5)"/><path d="M 134 255v 11h 11v -5.5a 5.5 5.5, 0, 0, 0, -5.5 -5.5" transform="rotate(180,139.5,260.5)"/><path d="M 134 288v 11h 5.5a 5.5 5.5, 0, 0, 0, 0 -11" transform="rotate(-90,139.5,293.5)"/><rect x="134" y="299" width="11" height="11" transform="rotate(0,139.5,304.5)"/><rect x="134" y="310" width="11" height="11" transform="rotate(0,139.5,315.5)"/><rect x="134" y="321" width="11" height="11" transform="rotate(0,139.5,326.5)"/><rect x="134" y="332" width="11" height="11" transform="rotate(0,139.5,337.5)"/><path d="M 134 343v 11h 11v -5.5a 5.5 5.5, 0, 0, 0, -5.5 -5.5" transform="rotate(90,139.5,348.5)"/><path d="M 134 376v 11h 5.5a 5.5 5.5, 0, 0, 0, 0 -11" transform="rotate(180,139.5,381.5)"/><path d="M 134 409v 11h 5.5a 5.5 5.5, 0, 0, 0, 0 -11" transform="rotate(0,139.5,414.5)"/><rect x="145" y="35" width="11" height="11" transform="rotate(0,150.5,40.5)"/><path d="M 145 57v 11h 5.5a 5.5 5.5, 0, 0, 0, 0 -11" transform="rotate(-90,150.5,62.5)"/><path d="M 145 68v 11h 5.5a 5.5 5.5, 0, 0, 0, 0 -11" transform="rotate(90,150.5,73.5)"/><rect x="145" y="156" width="11" height="11" transform="rotate(0,150.5,161.5)"/><path d="M 145 167v 11h 5.5a 5.5 5.5, 0, 0, 0, 0 -11" transform="rotate(90,150.5,172.5)"/><path d="M 145 233v 11h 5.5a 5.5 5.5, 0, 0, 0, 0 -11" transform="rotate(-90,150.5,238.5)"/><rect x="145" y="244" width="11" height="11" transform="rotate(0,150.5,249.5)"/><path d="M 145 255v 11h 11v -5.5a 5.5 5.5, 0, 0, 0, -5.5 -5.5" transform="rotate(90,150.5,260.5)"/><path d="M 145 310v 11h 11v -5.5a 5.5 5.5, 0, 0, 0, -5.5 -5.5" transform="rotate(0,150.5,315.5)"/><rect x="145" y="321" width="11" height="11" transform="rotate(0,150.5,326.5)"/><rect x="145" y="332" width="11" height="11" transform="rotate(0,150.5,337.5)"/><path d="M 145 365v 11h 5.5a 5.5 5.5, 0, 0, 0, 0 -11" transform="rotate(-90,150.5,370.5)"/><rect x="145" y="376" width="11" height="11" transform="rotate(0,150.5,381.5)"/><path d="M 145 387v 11h 5.5a 5.5 5.5, 0, 0, 0, 0 -11" transform="rotate(90,150.5,392.5)"/><path d="M 145 420v 11h 5.5a 5.5 5.5, 0, 0, 0, 0 -11" transform="rotate(-90,150.5,425.5)"/><path d="M 145 431v 11h 5.5a 5.5 5.5, 0, 0, 0, 0 -11" transform="rotate(90,150.5,436.5)"/><path d="M 145 453v 11h 11v -5.5a 5.5 5.5, 0, 0, 0, -5.5 -5.5" transform="rotate(-90,150.5,458.5)"/><path d="M 145 464v 11h 5.5a 5.5 5.5, 0, 0, 0, 0 -11" transform="rotate(90,150.5,469.5)"/><path d="M 156 35v 11h 11v -5.5a 5.5 5.5, 0, 0, 0, -5.5 -5.5" transform="rotate(0,161.5,40.5)"/><path d="M 156 46v 11h 5.5a 5.5 5.5, 0, 0, 0, 0 -11" transform="rotate(90,161.5,51.5)"/><circle cx="161.5" cy="95.5" r="5.5" transform="rotate(0,161.5,95.5)"/><path d="M 156 123v 11h 11v -5.5a 5.5 5.5, 0, 0, 0, -5.5 -5.5" transform="rotate(-90,161.5,128.5)"/><path d="M 156 134v 11h 11v -5.5a 5.5 5.5, 0, 0, 0, -5.5 -5.5" transform="rotate(180,161.5,139.5)"/><rect x="156" y="156" width="11" height="11" transform="rotate(0,161.5,161.5)"/><path d="M 156 189v 11h 5.5a 5.5 5.5, 0, 0, 0, 0 -11" transform="rotate(180,161.5,194.5)"/><path d="M 156 222v 11h 5.5a 5.5 5.5, 0, 0, 0, 0 -11" transform="rotate(180,161.5,227.5)"/><rect x="156" y="244" width="11" height="11" transform="rotate(0,161.5,249.5)"/><path d="M 156 277v 11h 5.5a 5.5 5.5, 0, 0, 0, 0 -11" transform="rotate(-90,161.5,282.5)"/><path d="M 156 288v 11h 5.5a 5.5 5.5, 0, 0, 0, 0 -11" transform="rotate(90,161.5,293.5)"/><path d="M 156 321v 11h 11v -5.5a 5.5 5.5, 0, 0, 0, -5.5 -5.5" transform="rotate(0,161.5,326.5)"/><path d="M 156 332v 11h 11v -5.5a 5.5 5.5, 0, 0, 0, -5.5 -5.5" transform="rotate(90,161.5,337.5)"/><rect x="156" y="376" width="11" height="11" transform="rotate(0,161.5,381.5)"/><path d="M 156 398v 11h 11v -5.5a 5.5 5.5, 0, 0, 0, -5.5 -5.5" transform="rotate(-90,161.5,403.5)"/><path d="M 156 409v 11h 11v -5.5a 5.5 5.5, 0, 0, 0, -5.5 -5.5" transform="rotate(180,161.5,414.5)"/><path d="M 156 453v 11h 5.5a 5.5 5.5, 0, 0, 0, 0 -11" transform="rotate(0,161.5,458.5)"/><circle cx="172.5" cy="84.5" r="5.5" transform="rotate(0,172.5,84.5)"/><path d="M 167 101v 11h 5.5a 5.5 5.5, 0, 0, 0, 0 -11" transform="rotate(-90,172.5,106.5)"/><rect x="167" y="112" width="11" height="11" transform="rotate(0,172.5,117.5)"/><rect x="167" y="123" width="11" height="11" transform="rotate(0,172.5,128.5)"/><rect x="167" y="134" width="11" height="11" transform="rotate(0,172.5,139.5)"/><rect x="167" y="145" width="11" height="11" transform="rotate(0,172.5,150.5)"/><rect x="167" y="156" width="11" height="11" transform="rotate(0,172.5,161.5)"/><path d="M 167 178v 11h 11v -5.5a 5.5 5.5, 0, 0, 0, -5.5 -5.5" transform="rotate(-90,172.5,183.5)"/><path d="M 167 189v 11h 11v -5.5a 5.5 5.5, 0, 0, 0, -5.5 -5.5" transform="rotate(90,172.5,194.5)"/><path d="M 167 222v 11h 5.5a 5.5 5.5, 0, 0, 0, 0 -11" transform="rotate(0,172.5,227.5)"/><path d="M 167 244v 11h 5.5a 5.5 5.5, 0, 0, 0, 0 -11" transform="rotate(0,172.5,249.5)"/><path d="M 167 299v 11h 5.5a 5.5 5.5, 0, 0, 0, 0 -11" transform="rotate(180,172.5,304.5)"/><path d="M 167 354v 11h 5.5a 5.5 5.5, 0, 0, 0, 0 -11" transform="rotate(-90,172.5,359.5)"/><rect x="167" y="365" width="11" height="11" transform="rotate(0,172.5,370.5)"/><rect x="167" y="376" width="11" height="11" transform="rotate(0,172.5,381.5)"/><path d="M 167 398v 11h 11v -5.5a 5.5 5.5, 0, 0, 0, -5.5 -5.5" transform="rotate(0,172.5,403.5)"/><rect x="167" y="409" width="11" height="11" transform="rotate(0,172.5,414.5)"/><path d="M 167 420v 11h 5.5a 5.5 5.5, 0, 0, 0, 0 -11" transform="rotate(90,172.5,425.5)"/><circle cx="172.5" cy="469.5" r="5.5" transform="rotate(0,172.5,469.5)"/><circle cx="183.5" cy="29.5" r="5.5" transform="rotate(0,183.5,29.5)"/><path d="M 178 46v 11h 11v -5.5a 5.5 5.5, 0, 0, 0, -5.5 -5.5" transform="rotate(-90,183.5,51.5)"/><path d="M 178 57v 11h 11v -5.5a 5.5 5.5, 0, 0, 0, -5.5 -5.5" transform="rotate(180,183.5,62.5)"/><circle cx="183.5" cy="95.5" r="5.5" transform="rotate(0,183.5,95.5)"/><rect x="178" y="112" width="11" height="11" transform="rotate(0,183.5,117.5)"/><rect x="178" y="123" width="11" height="11" transform="rotate(0,183.5,128.5)"/><rect x="178" y="134" width="11" height="11" transform="rotate(0,183.5,139.5)"/><rect x="178" y="156" width="11" height="11" transform="rotate(0,183.5,161.5)"/><rect x="178" y="178" width="11" height="11" transform="rotate(0,183.5,183.5)"/><path d="M 178 200v 11h 5.5a 5.5 5.5, 0, 0, 0, 0 -11" transform="rotate(180,183.5,205.5)"/><path d="M 178 233v 11h 5.5a 5.5 5.5, 0, 0, 0, 0 -11" transform="rotate(180,183.5,238.5)"/><path d="M 178 255v 11h 5.5a 5.5 5.5, 0, 0, 0, 0 -11" transform="rotate(-90,183.5,260.5)"/><rect x="178" y="266" width="11" height="11" transform="rotate(0,183.5,271.5)"/><rect x="178" y="277" width="11" height="11" transform="rotate(0,183.5,282.5)"/><rect x="178" y="288" width="11" height="11" transform="rotate(0,183.5,293.5)"/><path d="M 178 299v 11h 11v -5.5a 5.5 5.5, 0, 0, 0, -5.5 -5.5" transform="rotate(90,183.5,304.5)"/><path d="M 178 321v 11h 5.5a 5.5 5.5, 0, 0, 0, 0 -11" transform="rotate(180,183.5,326.5)"/><rect x="178" y="376" width="11" height="11" transform="rotate(0,183.5,381.5)"/><path d="M 178 387v 11h 11v -5.5a 5.5 5.5, 0, 0, 0, -5.5 -5.5" transform="rotate(180,183.5,392.5)"/><rect x="178" y="409" width="11" height="11" transform="rotate(0,183.5,414.5)"/><path d="M 178 431v 11h 11v -5.5a 5.5 5.5, 0, 0, 0, -5.5 -5.5" transform="rotate(-90,183.5,436.5)"/><rect x="178" y="442" width="11" height="11" transform="rotate(0,183.5,447.5)"/><path d="M 178 453v 11h 11v -5.5a 5.5 5.5, 0, 0, 0, -5.5 -5.5" transform="rotate(180,183.5,458.5)"/><path d="M 189 46v 11h 11v -5.5a 5.5 5.5, 0, 0, 0, -5.5 -5.5" transform="rotate(0,194.5,51.5)"/><rect x="189" y="57" width="11" height="11" transform="rotate(0,194.5,62.5)"/><path d="M 189 68v 11h 5.5a 5.5 5.5, 0, 0, 0, 0 -11" transform="rotate(90,194.5,73.5)"/><path d="M 189 112v 11h 5.5a 5.5 5.5, 0, 0, 0, 0 -11" transform="rotate(0,194.5,117.5)"/><path d="M 189 134v 11h 5.5a 5.5 5.5, 0, 0, 0, 0 -11" transform="rotate(0,194.5,139.5)"/><rect x="189" y="156" width="11" height="11" transform="rotate(0,194.5,161.5)"/><rect x="189" y="167" width="11" height="11" transform="rotate(0,194.5,172.5)"/><rect x="189" y="178" width="11" height="11" transform="rotate(0,194.5,183.5)"/><rect x="189" y="189" width="11" height="11" transform="rotate(0,194.5,194.5)"/><rect x="189" y="200" width="11" height="11" transform="rotate(0,194.5,205.5)"/><rect x="189" y="233" width="11" height="11" transform="rotate(0,194.5,238.5)"/><path d="M 189 244v 11h 11v -5.5a 5.5 5.5, 0, 0, 0, -5.5 -5.5" transform="rotate(180,194.5,249.5)"/><path d="M 189 266v 11h 11v -5.5a 5.5 5.5, 0, 0, 0, -5.5 -5.5" transform="rotate(0,194.5,271.5)"/><rect x="189" y="277" width="11" height="11" transform="rotate(0,194.5,282.5)"/><path d="M 189 321v 11h 5.5a 5.5 5.5, 0, 0, 0, 0 -11" transform="rotate(0,194.5,326.5)"/><path d="M 189 354v 11h 5.5a 5.5 5.5, 0, 0, 0, 0 -11" transform="rotate(-90,194.5,359.5)"/><rect x="189" y="365" width="11" height="11" transform="rotate(0,194.5,370.5)"/><rect x="189" y="376" width="11" height="11" transform="rotate(0,194.5,381.5)"/><rect x="189" y="387" width="11" height="11" transform="rotate(0,194.5,392.5)"/><rect x="189" y="409" width="11" height="11" transform="rotate(0,194.5,414.5)"/><path d="M 189 431v 11h 11v -5.5a 5.5 5.5, 0, 0, 0, -5.5 -5.5" transform="rotate(0,194.5,436.5)"/><rect x="189" y="442" width="11" height="11" transform="rotate(0,194.5,447.5)"/><rect x="189" y="453" width="11" height="11" transform="rotate(0,194.5,458.5)"/><path d="M 189 464v 11h 5.5a 5.5 5.5, 0, 0, 0, 0 -11" transform="rotate(90,194.5,469.5)"/><path d="M 200 24v 11h 11v -5.5a 5.5 5.5, 0, 0, 0, -5.5 -5.5" transform="rotate(-90,205.5,29.5)"/><path d="M 200 35v 11h 5.5a 5.5 5.5, 0, 0, 0, 0 -11" transform="rotate(90,205.5,40.5)"/><path d="M 200 79v 11h 11v -5.5a 5.5 5.5, 0, 0, 0, -5.5 -5.5" transform="rotate(-90,205.5,84.5)"/><path d="M 200 90v 11h 5.5a 5.5 5.5, 0, 0, 0, 0 -11" transform="rotate(90,205.5,95.5)"/><path d="M 200 156v 11h 5.5a 5.5 5.5, 0, 0, 0, 0 -11" transform="rotate(0,205.5,161.5)"/><path d="M 200 178v 11h 5.5a 5.5 5.5, 0, 0, 0, 0 -11" transform="rotate(0,205.5,183.5)"/><rect x="200" y="200" width="11" height="11" transform="rotate(0,205.5,205.5)"/><path d="M 200 233v 11h 11v -5.5a 5.5 5.5, 0, 0, 0, -5.5 -5.5" transform="rotate(0,205.5,238.5)"/><path d="M 200 244v 11h 11v -5.5a 5.5 5.5, 0, 0, 0, -5.5 -5.5" transform="rotate(90,205.5,249.5)"/><rect x="200" y="277" width="11" height="11" transform="rotate(0,205.5,282.5)"/><rect x="200" y="288" width="11" height="11" transform="rotate(0,205.5,293.5)"/><rect x="200" y="299" width="11" height="11" transform="rotate(0,205.5,304.5)"/><path d="M 200 310v 11h 5.5a 5.5 5.5, 0, 0, 0, 0 -11" transform="rotate(90,205.5,315.5)"/><path d="M 200 332v 11h 5.5a 5.5 5.5, 0, 0, 0, 0 -11" transform="rotate(-90,205.5,337.5)"/><path d="M 200 343v 11h 5.5a 5.5 5.5, 0, 0, 0, 0 -11" transform="rotate(90,205.5,348.5)"/><rect x="200" y="365" width="11" height="11" transform="rotate(0,205.5,370.5)"/><rect x="200" y="387" width="11" height="11" transform="rotate(0,205.5,392.5)"/><rect x="200" y="409" width="11" height="11" transform="rotate(0,205.5,414.5)"/><path d="M 200 442v 11h 11v -5.5a 5.5 5.5, 0, 0, 0, -5.5 -5.5" transform="rotate(0,205.5,447.5)"/><path d="M 200 453v 11h 11v -5.5a 5.5 5.5, 0, 0, 0, -5.5 -5.5" transform="rotate(90,205.5,458.5)"/><rect x="211" y="24" width="11" height="11" transform="rotate(0,216.5,29.5)"/><path d="M 211 68v 11h 5.5a 5.5 5.5, 0, 0, 0, 0 -11" transform="rotate(-90,216.5,73.5)"/><path d="M 211 79v 11h 11v -5.5a 5.5 5.5, 0, 0, 0, -5.5 -5.5" transform="rotate(90,216.5,84.5)"/><path d="M 211 101v 11h 11v -5.5a 5.5 5.5, 0, 0, 0, -5.5 -5.5" transform="rotate(-90,216.5,106.5)"/><rect x="211" y="112" width="11" height="11" transform="rotate(0,216.5,117.5)"/><path d="M 211 123v 11h 5.5a 5.5 5.5, 0, 0, 0, 0 -11" transform="rotate(90,216.5,128.5)"/><path d="M 211 167v 11h 5.5a 5.5 5.5, 0, 0, 0, 0 -11" transform="rotate(180,216.5,172.5)"/><rect x="211" y="200" width="11" height="11" transform="rotate(0,216.5,205.5)"/><rect x="211" y="211" width="11" height="11" transform="rotate(0,216.5,216.5)"/><path d="M 211 222v 11h 11v -5.5a 5.5 5.5, 0, 0, 0, -5.5 -5.5" transform="rotate(180,216.5,227.5)"/><rect x="211" y="277" width="11" height="11" transform="rotate(0,216.5,282.5)"/><path d="M 211 288v 11h 11v -5.5a 5.5 5.5, 0, 0, 0, -5.5 -5.5" transform="rotate(90,216.5,293.5)"/><path d="M 211 321v 11h 5.5a 5.5 5.5, 0, 0, 0, 0 -11" transform="rotate(180,216.5,326.5)"/><path d="M 211 354v 11h 11v -5.5a 5.5 5.5, 0, 0, 0, -5.5 -5.5" transform="rotate(-90,216.5,359.5)"/><rect x="211" y="365" width="11" height="11" transform="rotate(0,216.5,370.5)"/><rect x="211" y="376" width="11" height="11" transform="rotate(0,216.5,381.5)"/><rect x="211" y="387" width="11" height="11" transform="rotate(0,216.5,392.5)"/><rect x="211" y="398" width="11" height="11" transform="rotate(0,216.5,403.5)"/><rect x="211" y="409" width="11" height="11" transform="rotate(0,216.5,414.5)"/><rect x="211" y="420" width="11" height="11" transform="rotate(0,216.5,425.5)"/><path d="M 211 431v 11h 11v -5.5a 5.5 5.5, 0, 0, 0, -5.5 -5.5" transform="rotate(180,216.5,436.5)"/><path d="M 211 464v 11h 5.5a 5.5 5.5, 0, 0, 0, 0 -11" transform="rotate(180,216.5,469.5)"/><rect x="222" y="24" width="11" height="11" transform="rotate(0,227.5,29.5)"/><circle cx="227.5" cy="62.5" r="5.5" transform="rotate(0,227.5,62.5)"/><path d="M 222 90v 11h 5.5a 5.5 5.5, 0, 0, 0, 0 -11" transform="rotate(-90,227.5,95.5)"/><rect x="222" y="101" width="11" height="11" transform="rotate(0,227.5,106.5)"/><path d="M 222 112v 11h 11v -5.5a 5.5 5.5, 0, 0, 0, -5.5 -5.5" transform="rotate(90,227.5,117.5)"/><path d="M 222 145v 11h 5.5a 5.5 5.5, 0, 0, 0, 0 -11" transform="rotate(180,227.5,150.5)"/><rect x="222" y="167" width="11" height="11" transform="rotate(0,227.5,172.5)"/><rect x="222" y="200" width="11" height="11" transform="rotate(0,227.5,205.5)"/><rect x="222" y="211" width="11" height="11" transform="rotate(0,227.5,216.5)"/><path d="M 222 222v 11h 11v -5.5a 5.5 5.5, 0, 0, 0, -5.5 -5.5" transform="rotate(90,227.5,227.5)"/><path d="M 222 244v 11h 5.5a 5.5 5.5, 0, 0, 0, 0 -11" transform="rotate(180,227.5,249.5)"/><path d="M 222 277v 11h 5.5a 5.5 5.5, 0, 0, 0, 0 -11" transform="rotate(0,227.5,282.5)"/><path d="M 222 299v 11h 5.5a 5.5 5.5, 0, 0, 0, 0 -11" transform="rotate(-90,227.5,304.5)"/><rect x="222" y="310" width="11" height="11" transform="rotate(0,227.5,315.5)"/><rect x="222" y="321" width="11" height="11" transform="rotate(0,227.5,326.5)"/><rect x="222" y="332" width="11" height="11" transform="rotate(0,227.5,337.5)"/><rect x="222" y="343" width="11" height="11" transform="rotate(0,227.5,348.5)"/><rect x="222" y="354" width="11" height="11" transform="rotate(0,227.5,359.5)"/><rect x="222" y="365" width="11" height="11" transform="rotate(0,227.5,370.5)"/><rect x="222" y="376" width="11" height="11" transform="rotate(0,227.5,381.5)"/><path d="M 222 409v 11h 11v -5.5a 5.5 5.5, 0, 0, 0, -5.5 -5.5" transform="rotate(0,227.5,414.5)"/><rect x="222" y="420" width="11" height="11" transform="rotate(0,227.5,425.5)"/><rect x="222" y="431" width="11" height="11" transform="rotate(0,227.5,436.5)"/><rect x="222" y="464" width="11" height="11" transform="rotate(0,227.5,469.5)"/><rect x="233" y="24" width="11" height="11" transform="rotate(0,238.5,29.5)"/><rect x="233" y="35" width="11" height="11" transform="rotate(0,238.5,40.5)"/><path d="M 233 46v 11h 5.5a 5.5 5.5, 0, 0, 0, 0 -11" transform="rotate(90,238.5,51.5)"/><circle cx="238.5" cy="128.5" r="5.5" transform="rotate(0,238.5,128.5)"/><path d="M 233 145v 11h 11v -5.5a 5.5 5.5, 0, 0, 0, -5.5 -5.5" transform="rotate(0,238.5,150.5)"/><rect x="233" y="156" width="11" height="11" transform="rotate(0,238.5,161.5)"/><path d="M 233 167v 11h 11v -5.5a 5.5 5.5, 0, 0, 0, -5.5 -5.5" transform="rotate(90,238.5,172.5)"/><path d="M 233 200v 11h 5.5a 5.5 5.5, 0, 0, 0, 0 -11" transform="rotate(0,238.5,205.5)"/><path d="M 233 244v 11h 5.5a 5.5 5.5, 0, 0, 0, 0 -11" transform="rotate(0,238.5,249.5)"/><circle cx="238.5" cy="293.5" r="5.5" transform="rotate(0,238.5,293.5)"/><path d="M 233 310v 11h 11v -5.5a 5.5 5.5, 0, 0, 0, -5.5 -5.5" transform="rotate(0,238.5,315.5)"/><rect x="233" y="321" width="11" height="11" transform="rotate(0,238.5,326.5)"/><path d="M 233 332v 11h 11v -5.5a 5.5 5.5, 0, 0, 0, -5.5 -5.5" transform="rotate(90,238.5,337.5)"/><rect x="233" y="365" width="11" height="11" transform="rotate(0,238.5,370.5)"/><rect x="233" y="376" width="11" height="11" transform="rotate(0,238.5,381.5)"/><path d="M 233 387v 11h 5.5a 5.5 5.5, 0, 0, 0, 0 -11" transform="rotate(90,238.5,392.5)"/><path d="M 233 420v 11h 11v -5.5a 5.5 5.5, 0, 0, 0, -5.5 -5.5" transform="rotate(0,238.5,425.5)"/><path d="M 233 431v 11h 11v -5.5a 5.5 5.5, 0, 0, 0, -5.5 -5.5" transform="rotate(90,238.5,436.5)"/><rect x="233" y="464" width="11" height="11" transform="rotate(0,238.5,469.5)"/><path d="M 244 24v 11h 5.5a 5.5 5.5, 0, 0, 0, 0 -11" transform="rotate(0,249.5,29.5)"/><path d="M 244 90v 11h 5.5a 5.5 5.5, 0, 0, 0, 0 -11" transform="rotate(-90,249.5,95.5)"/><rect x="244" y="101" width="11" height="11" transform="rotate(0,249.5,106.5)"/><path d="M 244 112v 11h 11v -5.5a 5.5 5.5, 0, 0, 0, -5.5 -5.5" transform="rotate(180,249.5,117.5)"/><circle cx="249.5" cy="216.5" r="5.5" transform="rotate(0,249.5,216.5)"/><path d="M 244 255v 11h 5.5a 5.5 5.5, 0, 0, 0, 0 -11" transform="rotate(-90,249.5,260.5)"/><rect x="244" y="266" width="11" height="11" transform="rotate(0,249.5,271.5)"/><path d="M 244 277v 11h 11v -5.5a 5.5 5.5, 0, 0, 0, -5.5 -5.5" transform="rotate(180,249.5,282.5)"/><circle cx="249.5" cy="348.5" r="5.5" transform="rotate(0,249.5,348.5)"/><rect x="244" y="365" width="11" height="11" transform="rotate(0,249.5,370.5)"/><path d="M 244 376v 11h 11v -5.5a 5.5 5.5, 0, 0, 0, -5.5 -5.5" transform="rotate(90,249.5,381.5)"/><path d="M 244 442v 11h 5.5a 5.5 5.5, 0, 0, 0, 0 -11" transform="rotate(180,249.5,447.5)"/><path d="M 244 464v 11h 5.5a 5.5 5.5, 0, 0, 0, 0 -11" transform="rotate(0,249.5,469.5)"/><circle cx="260.5" cy="40.5" r="5.5" transform="rotate(0,260.5,40.5)"/><circle cx="260.5" cy="84.5" r="5.5" transform="rotate(0,260.5,84.5)"/><rect x="255" y="112" width="11" height="11" transform="rotate(0,260.5,117.5)"/><path d="M 255 145v 11h 5.5a 5.5 5.5, 0, 0, 0, 0 -11" transform="rotate(180,260.5,150.5)"/><path d="M 255 167v 11h 5.5a 5.5 5.5, 0, 0, 0, 0 -11" transform="rotate(180,260.5,172.5)"/><circle cx="260.5" cy="194.5" r="5.5" transform="rotate(0,260.5,194.5)"/><circle cx="260.5" cy="249.5" r="5.5" transform="rotate(0,260.5,249.5)"/><path d="M 255 266v 11h 11v -5.5a 5.5 5.5, 0, 0, 0, -5.5 -5.5" transform="rotate(0,260.5,271.5)"/><rect x="255" y="277" width="11" height="11" transform="rotate(0,260.5,282.5)"/><rect x="255" y="288" width="11" height="11" transform="rotate(0,260.5,293.5)"/><path d="M 255 299v 11h 11v -5.5a 5.5 5.5, 0, 0, 0, -5.5 -5.5" transform="rotate(180,260.5,304.5)"/><path d="M 255 321v 11h 11v -5.5a 5.5 5.5, 0, 0, 0, -5.5 -5.5" transform="rotate(-90,260.5,326.5)"/><path d="M 255 332v 11h 5.5a 5.5 5.5, 0, 0, 0, 0 -11" transform="rotate(90,260.5,337.5)"/><path d="M 255 365v 11h 5.5a 5.5 5.5, 0, 0, 0, 0 -11" transform="rotate(0,260.5,370.5)"/><path d="M 255 409v 11h 11v -5.5a 5.5 5.5, 0, 0, 0, -5.5 -5.5" transform="rotate(-90,260.5,414.5)"/><rect x="255" y="420" width="11" height="11" transform="rotate(0,260.5,425.5)"/><rect x="255" y="431" width="11" height="11" transform="rotate(0,260.5,436.5)"/><path d="M 255 442v 11h 11v -5.5a 5.5 5.5, 0, 0, 0, -5.5 -5.5" transform="rotate(90,260.5,447.5)"/><circle cx="271.5" cy="95.5" r="5.5" transform="rotate(0,271.5,95.5)"/><rect x="266" y="112" width="11" height="11" transform="rotate(0,271.5,117.5)"/><rect x="266" y="123" width="11" height="11" transform="rotate(0,271.5,128.5)"/><rect x="266" y="134" width="11" height="11" transform="rotate(0,271.5,139.5)"/><rect x="266" y="145" width="11" height="11" transform="rotate(0,271.5,150.5)"/><rect x="266" y="156" width="11" height="11" transform="rotate(0,271.5,161.5)"/><path d="M 266 167v 11h 11v -5.5a 5.5 5.5, 0, 0, 0, -5.5 -5.5" transform="rotate(90,271.5,172.5)"/><path d="M 266 200v 11h 5.5a 5.5 5.5, 0, 0, 0, 0 -11" transform="rotate(180,271.5,205.5)"/><path d="M 266 222v 11h 5.5a 5.5 5.5, 0, 0, 0, 0 -11" transform="rotate(180,271.5,227.5)"/><path d="M 266 299v 11h 11v -5.5a 5.5 5.5, 0, 0, 0, -5.5 -5.5" transform="rotate(0,271.5,304.5)"/><rect x="266" y="310" width="11" height="11" transform="rotate(0,271.5,315.5)"/><rect x="266" y="321" width="11" height="11" transform="rotate(0,271.5,326.5)"/><circle cx="271.5" cy="348.5" r="5.5" transform="rotate(0,271.5,348.5)"/><rect x="266" y="409" width="11" height="11" transform="rotate(0,271.5,414.5)"/><rect x="266" y="431" width="11" height="11" transform="rotate(0,271.5,436.5)"/><circle cx="282.5" cy="29.5" r="5.5" transform="rotate(0,282.5,29.5)"/><path d="M 277 46v 11h 11v -5.5a 5.5 5.5, 0, 0, 0, -5.5 -5.5" transform="rotate(-90,282.5,51.5)"/><rect x="277" y="57" width="11" height="11" transform="rotate(0,282.5,62.5)"/><path d="M 277 68v 11h 11v -5.5a 5.5 5.5, 0, 0, 0, -5.5 -5.5" transform="rotate(180,282.5,73.5)"/><path d="M 277 101v 11h 5.5a 5.5 5.5, 0, 0, 0, 0 -11" transform="rotate(-90,282.5,106.5)"/><rect x="277" y="112" width="11" height="11" transform="rotate(0,282.5,117.5)"/><rect x="277" y="123" width="11" height="11" transform="rotate(0,282.5,128.5)"/><path d="M 277 145v 11h 11v -5.5a 5.5 5.5, 0, 0, 0, -5.5 -5.5" transform="rotate(0,282.5,150.5)"/><rect x="277" y="156" width="11" height="11" transform="rotate(0,282.5,161.5)"/><path d="M 277 189v 11h 5.5a 5.5 5.5, 0, 0, 0, 0 -11" transform="rotate(-90,282.5,194.5)"/><rect x="277" y="200" width="11" height="11" transform="rotate(0,282.5,205.5)"/><rect x="277" y="211" width="11" height="11" transform="rotate(0,282.5,216.5)"/><rect x="277" y="222" width="11" height="11" transform="rotate(0,282.5,227.5)"/><path d="M 277 255v 11h 5.5a 5.5 5.5, 0, 0, 0, 0 -11" transform="rotate(-90,282.5,260.5)"/><path d="M 277 266v 11h 11v -5.5a 5.5 5.5, 0, 0, 0, -5.5 -5.5" transform="rotate(180,282.5,271.5)"/><path d="M 277 288v 11h 5.5a 5.5 5.5, 0, 0, 0, 0 -11" transform="rotate(180,282.5,293.5)"/><path d="M 277 310v 11h 11v -5.5a 5.5 5.5, 0, 0, 0, -5.5 -5.5" transform="rotate(0,282.5,315.5)"/><rect x="277" y="321" width="11" height="11" transform="rotate(0,282.5,326.5)"/><path d="M 277 409v 11h 5.5a 5.5 5.5, 0, 0, 0, 0 -11" transform="rotate(0,282.5,414.5)"/><rect x="277" y="431" width="11" height="11" transform="rotate(0,282.5,436.5)"/><circle cx="282.5" cy="458.5" r="5.5" transform="rotate(0,282.5,458.5)"/><rect x="288" y="46" width="11" height="11" transform="rotate(0,293.5,51.5)"/><rect x="288" y="68" width="11" height="11" transform="rotate(0,293.5,73.5)"/><circle cx="293.5" cy="95.5" r="5.5" transform="rotate(0,293.5,95.5)"/><rect x="288" y="123" width="11" height="11" transform="rotate(0,293.5,128.5)"/><path d="M 288 134v 11h 11v -5.5a 5.5 5.5, 0, 0, 0, -5.5 -5.5" transform="rotate(180,293.5,139.5)"/><rect x="288" y="156" width="11" height="11" transform="rotate(0,293.5,161.5)"/><path d="M 288 167v 11h 5.5a 5.5 5.5, 0, 0, 0, 0 -11" transform="rotate(90,293.5,172.5)"/><path d="M 288 200v 11h 11v -5.5a 5.5 5.5, 0, 0, 0, -5.5 -5.5" transform="rotate(0,293.5,205.5)"/><rect x="288" y="211" width="11" height="11" transform="rotate(0,293.5,216.5)"/><path d="M 288 222v 11h 11v -5.5a 5.5 5.5, 0, 0, 0, -5.5 -5.5" transform="rotate(90,293.5,227.5)"/><path d="M 288 266v 11h 5.5a 5.5 5.5, 0, 0, 0, 0 -11" transform="rotate(0,293.5,271.5)"/><path d="M 288 288v 11h 5.5a 5.5 5.5, 0, 0, 0, 0 -11" transform="rotate(0,293.5,293.5)"/><rect x="288" y="321" width="11" height="11" transform="rotate(0,293.5,326.5)"/><path d="M 288 332v 11h 11v -5.5a 5.5 5.5, 0, 0, 0, -5.5 -5.5" transform="rotate(180,293.5,337.5)"/><path d="M 288 365v 11h 11v -5.5a 5.5 5.5, 0, 0, 0, -5.5 -5.5" transform="rotate(-90,293.5,370.5)"/><path d="M 288 376v 11h 5.5a 5.5 5.5, 0, 0, 0, 0 -11" transform="rotate(90,293.5,381.5)"/><path d="M 288 398v 11h 5.5a 5.5 5.5, 0, 0, 0, 0 -11" transform="rotate(180,293.5,403.5)"/><rect x="288" y="431" width="11" height="11" transform="rotate(0,293.5,436.5)"/><circle cx="293.5" cy="469.5" r="5.5" transform="rotate(0,293.5,469.5)"/><path d="M 299 46v 11h 11v -5.5a 5.5 5.5, 0, 0, 0, -5.5 -5.5" transform="rotate(0,304.5,51.5)"/><rect x="299" y="57" width="11" height="11" transform="rotate(0,304.5,62.5)"/><path d="M 299 68v 11h 11v -5.5a 5.5 5.5, 0, 0, 0, -5.5 -5.5" transform="rotate(90,304.5,73.5)"/><path d="M 299 101v 11h 5.5a 5.5 5.5, 0, 0, 0, 0 -11" transform="rotate(180,304.5,106.5)"/><rect x="299" y="123" width="11" height="11" transform="rotate(0,304.5,128.5)"/><rect x="299" y="134" width="11" height="11" transform="rotate(0,304.5,139.5)"/><rect x="299" y="145" width="11" height="11" transform="rotate(0,304.5,150.5)"/><rect x="299" y="156" width="11" height="11" transform="rotate(0,304.5,161.5)"/><rect x="299" y="211" width="11" height="11" transform="rotate(0,304.5,216.5)"/><path d="M 299 244v 11h 5.5a 5.5 5.5, 0, 0, 0, 0 -11" transform="rotate(-90,304.5,249.5)"/><path d="M 299 255v 11h 5.5a 5.5 5.5, 0, 0, 0, 0 -11" transform="rotate(90,304.5,260.5)"/><circle cx="304.5" cy="282.5" r="5.5" transform="rotate(0,304.5,282.5)"/><rect x="299" y="321" width="11" height="11" transform="rotate(0,304.5,326.5)"/><path d="M 299 332v 11h 11v -5.5a 5.5 5.5, 0, 0, 0, -5.5 -5.5" transform="rotate(90,304.5,337.5)"/><path d="M 299 365v 11h 5.5a 5.5 5.5, 0, 0, 0, 0 -11" transform="rotate(0,304.5,370.5)"/><rect x="299" y="398" width="11" height="11" transform="rotate(0,304.5,403.5)"/><rect x="299" y="409" width="11" height="11" transform="rotate(0,304.5,414.5)"/><rect x="299" y="420" width="11" height="11" transform="rotate(0,304.5,425.5)"/><path d="M 299 431v 11h 11v -5.5a 5.5 5.5, 0, 0, 0, -5.5 -5.5" transform="rotate(90,304.5,436.5)"/><circle cx="315.5" cy="29.5" r="5.5" transform="rotate(0,315.5,29.5)"/><rect x="310" y="57" width="11" height="11" transform="rotate(0,315.5,62.5)"/><path d="M 310 90v 11h 5.5a 5.5 5.5, 0, 0, 0, 0 -11" transform="rotate(-90,315.5,95.5)"/><rect x="310" y="101" width="11" height="11" transform="rotate(0,315.5,106.5)"/><rect x="310" y="123" width="11" height="11" transform="rotate(0,315.5,128.5)"/><rect x="310" y="156" width="11" height="11" transform="rotate(0,315.5,161.5)"/><rect x="310" y="167" width="11" height="11" transform="rotate(0,315.5,172.5)"/><rect x="310" y="178" width="11" height="11" transform="rotate(0,315.5,183.5)"/><rect x="310" y="189" width="11" height="11" transform="rotate(0,315.5,194.5)"/><rect x="310" y="200" width="11" height="11" transform="rotate(0,315.5,205.5)"/><path d="M 310 211v 11h 11v -5.5a 5.5 5.5, 0, 0, 0, -5.5 -5.5" transform="rotate(90,315.5,216.5)"/><circle cx="315.5" cy="238.5" r="5.5" transform="rotate(0,315.5,238.5)"/><circle cx="315.5" cy="293.5" r="5.5" transform="rotate(0,315.5,293.5)"/><rect x="310" y="321" width="11" height="11" transform="rotate(0,315.5,326.5)"/><circle cx="315.5" cy="381.5" r="5.5" transform="rotate(0,315.5,381.5)"/><path d="M 310 398v 11h 11v -5.5a 5.5 5.5, 0, 0, 0, -5.5 -5.5" transform="rotate(0,315.5,403.5)"/><rect x="310" y="409" width="11" height="11" transform="rotate(0,315.5,414.5)"/><rect x="310" y="420" width="11" height="11" transform="rotate(0,315.5,425.5)"/><path d="M 321 35v 11h 5.5a 5.5 5.5, 0, 0, 0, 0 -11" transform="rotate(180,326.5,40.5)"/><rect x="321" y="57" width="11" height="11" transform="rotate(0,326.5,62.5)"/><path d="M 321 68v 11h 11v -5.5a 5.5 5.5, 0, 0, 0, -5.5 -5.5" transform="rotate(180,326.5,73.5)"/><rect x="321" y="101" width="11" height="11" transform="rotate(0,326.5,106.5)"/><rect x="321" y="112" width="11" height="11" transform="rotate(0,326.5,117.5)"/><rect x="321" y="123" width="11" height="11" transform="rotate(0,326.5,128.5)"/><path d="M 321 134v 11h 5.5a 5.5 5.5, 0, 0, 0, 0 -11" transform="rotate(90,326.5,139.5)"/><rect x="321" y="156" width="11" height="11" transform="rotate(0,326.5,161.5)"/><path d="M 321 189v 11h 5.5a 5.5 5.5, 0, 0, 0, 0 -11" transform="rotate(0,326.5,194.5)"/><path d="M 321 222v 11h 5.5a 5.5 5.5, 0, 0, 0, 0 -11" transform="rotate(180,326.5,227.5)"/><circle cx="326.5" cy="249.5" r="5.5" transform="rotate(0,326.5,249.5)"/><circle cx="326.5" cy="271.5" r="5.5" transform="rotate(0,326.5,271.5)"/><path d="M 321 321v 11h 5.5a 5.5 5.5, 0, 0, 0, 0 -11" transform="rotate(0,326.5,326.5)"/><path d="M 321 354v 11h 5.5a 5.5 5.5, 0, 0, 0, 0 -11" transform="rotate(-90,326.5,359.5)"/><path d="M 321 365v 11h 11v -5.5a 5.5 5.5, 0, 0, 0, -5.5 -5.5" transform="rotate(180,326.5,370.5)"/><path d="M 321 409v 11h 11v -5.5a 5.5 5.5, 0, 0, 0, -5.5 -5.5" transform="rotate(0,326.5,414.5)"/><rect x="321" y="420" width="11" height="11" transform="rotate(0,326.5,425.5)"/><rect x="321" y="431" width="11" height="11" transform="rotate(0,326.5,436.5)"/><rect x="321" y="442" width="11" height="11" transform="rotate(0,326.5,447.5)"/><path d="M 321 453v 11h 11v -5.5a 5.5 5.5, 0, 0, 0, -5.5 -5.5" transform="rotate(180,326.5,458.5)"/><path d="M 332 24v 11h 11v -5.5a 5.5 5.5, 0, 0, 0, -5.5 -5.5" transform="rotate(-90,337.5,29.5)"/><rect x="332" y="35" width="11" height="11" transform="rotate(0,337.5,40.5)"/><rect x="332" y="46" width="11" height="11" transform="rotate(0,337.5,51.5)"/><rect x="332" y="57" width="11" height="11" transform="rotate(0,337.5,62.5)"/><rect x="332" y="68" width="11" height="11" transform="rotate(0,337.5,73.5)"/><rect x="332" y="79" width="11" height="11" transform="rotate(0,337.5,84.5)"/><rect x="332" y="90" width="11" height="11" transform="rotate(0,337.5,95.5)"/><rect x="332" y="101" width="11" height="11" transform="rotate(0,337.5,106.5)"/><rect x="332" y="112" width="11" height="11" transform="rotate(0,337.5,117.5)"/><path d="M 332 145v 11h 11v -5.5a 5.5 5.5, 0, 0, 0, -5.5 -5.5" transform="rotate(-90,337.5,150.5)"/><path d="M 332 156v 11h 11v -5.5a 5.5 5.5, 0, 0, 0, -5.5 -5.5" transform="rotate(90,337.5,161.5)"/><circle cx="337.5" cy="183.5" r="5.5" transform="rotate(0,337.5,183.5)"/><path d="M 332 222v 11h 11v -5.5a 5.5 5.5, 0, 0, 0, -5.5 -5.5" transform="rotate(0,337.5,227.5)"/><path d="M 332 233v 11h 5.5a 5.5 5.5, 0, 0, 0, 0 -11" transform="rotate(90,337.5,238.5)"/><circle cx="337.5" cy="260.5" r="5.5" transform="rotate(0,337.5,260.5)"/><circle cx="337.5" cy="282.5" r="5.5" transform="rotate(0,337.5,282.5)"/><path d="M 332 299v 11h 11v -5.5a 5.5 5.5, 0, 0, 0, -5.5 -5.5" transform="rotate(-90,337.5,304.5)"/><path d="M 332 310v 11h 11v -5.5a 5.5 5.5, 0, 0, 0, -5.5 -5.5" transform="rotate(180,337.5,315.5)"/><path d="M 332 343v 11h 5.5a 5.5 5.5, 0, 0, 0, 0 -11" transform="rotate(180,337.5,348.5)"/><path d="M 332 365v 11h 5.5a 5.5 5.5, 0, 0, 0, 0 -11" transform="rotate(0,337.5,370.5)"/><circle cx="337.5" cy="392.5" r="5.5" transform="rotate(0,337.5,392.5)"/><rect x="332" y="431" width="11" height="11" transform="rotate(0,337.5,436.5)"/><rect x="332" y="442" width="11" height="11" transform="rotate(0,337.5,447.5)"/><rect x="332" y="453" width="11" height="11" transform="rotate(0,337.5,458.5)"/><path d="M 332 464v 11h 11v -5.5a 5.5 5.5, 0, 0, 0, -5.5 -5.5" transform="rotate(180,337.5,469.5)"/><rect x="343" y="24" width="11" height="11" transform="rotate(0,348.5,29.5)"/><path d="M 343 46v 11h 11v -5.5a 5.5 5.5, 0, 0, 0, -5.5 -5.5" transform="rotate(0,348.5,51.5)"/><path d="M 343 57v 11h 11v -5.5a 5.5 5.5, 0, 0, 0, -5.5 -5.5" transform="rotate(90,348.5,62.5)"/><path d="M 343 79v 11h 5.5a 5.5 5.5, 0, 0, 0, 0 -11" transform="rotate(0,348.5,84.5)"/><path d="M 343 101v 11h 11v -5.5a 5.5 5.5, 0, 0, 0, -5.5 -5.5" transform="rotate(0,348.5,106.5)"/><rect x="343" y="112" width="11" height="11" transform="rotate(0,348.5,117.5)"/><path d="M 343 134v 11h 5.5a 5.5 5.5, 0, 0, 0, 0 -11" transform="rotate(-90,348.5,139.5)"/><rect x="343" y="145" width="11" height="11" transform="rotate(0,348.5,150.5)"/><path d="M 343 167v 11h 5.5a 5.5 5.5, 0, 0, 0, 0 -11" transform="rotate(180,348.5,172.5)"/><path d="M 343 189v 11h 5.5a 5.5 5.5, 0, 0, 0, 0 -11" transform="rotate(-90,348.5,194.5)"/><path d="M 343 200v 11h 11v -5.5a 5.5 5.5, 0, 0, 0, -5.5 -5.5" transform="rotate(180,348.5,205.5)"/><circle cx="348.5" cy="249.5" r="5.5" transform="rotate(0,348.5,249.5)"/><circle cx="348.5" cy="271.5" r="5.5" transform="rotate(0,348.5,271.5)"/><path d="M 343 288v 11h 5.5a 5.5 5.5, 0, 0, 0, 0 -11" transform="rotate(-90,348.5,293.5)"/><rect x="343" y="299" width="11" height="11" transform="rotate(0,348.5,304.5)"/><rect x="343" y="310" width="11" height="11" transform="rotate(0,348.5,315.5)"/><rect x="343" y="321" width="11" height="11" transform="rotate(0,348.5,326.5)"/><rect x="343" y="332" width="11" height="11" transform="rotate(0,348.5,337.5)"/><rect x="343" y="343" width="11" height="11" transform="rotate(0,348.5,348.5)"/><path d="M 343 354v 11h 11v -5.5a 5.5 5.5, 0, 0, 0, -5.5 -5.5" transform="rotate(180,348.5,359.5)"/><circle cx="348.5" cy="381.5" r="5.5" transform="rotate(0,348.5,381.5)"/><circle cx="348.5" cy="403.5" r="5.5" transform="rotate(0,348.5,403.5)"/><path d="M 343 420v 11h 11v -5.5a 5.5 5.5, 0, 0, 0, -5.5 -5.5" transform="rotate(-90,348.5,425.5)"/><rect x="343" y="431" width="11" height="11" transform="rotate(0,348.5,436.5)"/><rect x="343" y="442" width="11" height="11" transform="rotate(0,348.5,447.5)"/><rect x="343" y="453" width="11" height="11" transform="rotate(0,348.5,458.5)"/><rect x="343" y="464" width="11" height="11" transform="rotate(0,348.5,469.5)"/><rect x="354" y="24" width="11" height="11" transform="rotate(0,359.5,29.5)"/><path d="M 354 35v 11h 5.5a 5.5 5.5, 0, 0, 0, 0 -11" transform="rotate(90,359.5,40.5)"/><path d="M 354 68v 11h 5.5a 5.5 5.5, 0, 0, 0, 0 -11" transform="rotate(180,359.5,73.5)"/><circle cx="359.5" cy="95.5" r="5.5" transform="rotate(0,359.5,95.5)"/><rect x="354" y="112" width="11" height="11" transform="rotate(0,359.5,117.5)"/><path d="M 354 123v 11h 5.5a 5.5 5.5, 0, 0, 0, 0 -11" transform="rotate(90,359.5,128.5)"/><rect x="354" y="145" width="11" height="11" transform="rotate(0,359.5,150.5)"/><rect x="354" y="156" width="11" height="11" transform="rotate(0,359.5,161.5)"/><rect x="354" y="167" width="11" height="11" transform="rotate(0,359.5,172.5)"/><path d="M 354 178v 11h 5.5a 5.5 5.5, 0, 0, 0, 0 -11" transform="rotate(90,359.5,183.5)"/><path d="M 354 200v 11h 11v -5.5a 5.5 5.5, 0, 0, 0, -5.5 -5.5" transform="rotate(0,359.5,205.5)"/><rect x="354" y="211" width="11" height="11" transform="rotate(0,359.5,216.5)"/><path d="M 354 222v 11h 11v -5.5a 5.5 5.5, 0, 0, 0, -5.5 -5.5" transform="rotate(180,359.5,227.5)"/><path d="M 354 255v 11h 5.5a 5.5 5.5, 0, 0, 0, 0 -11" transform="rotate(180,359.5,260.5)"/><circle cx="359.5" cy="282.5" r="5.5" transform="rotate(0,359.5,282.5)"/><path d="M 354 321v 11h 5.5a 5.5 5.5, 0, 0, 0, 0 -11" transform="rotate(0,359.5,326.5)"/><path d="M 354 343v 11h 11v -5.5a 5.5 5.5, 0, 0, 0, -5.5 -5.5" transform="rotate(0,359.5,348.5)"/><rect x="354" y="354" width="11" height="11" transform="rotate(0,359.5,359.5)"/><path d="M 354 365v 11h 11v -5.5a 5.5 5.5, 0, 0, 0, -5.5 -5.5" transform="rotate(180,359.5,370.5)"/><circle cx="359.5" cy="392.5" r="5.5" transform="rotate(0,359.5,392.5)"/><path d="M 354 420v 11h 5.5a 5.5 5.5, 0, 0, 0, 0 -11" transform="rotate(0,359.5,425.5)"/><rect x="354" y="453" width="11" height="11" transform="rotate(0,359.5,458.5)"/><path d="M 354 464v 11h 11v -5.5a 5.5 5.5, 0, 0, 0, -5.5 -5.5" transform="rotate(90,359.5,469.5)"/><rect x="365" y="24" width="11" height="11" transform="rotate(0,370.5,29.5)"/><path d="M 365 46v 11h 11v -5.5a 5.5 5.5, 0, 0, 0, -5.5 -5.5" transform="rotate(-90,370.5,51.5)"/><rect x="365" y="57" width="11" height="11" transform="rotate(0,370.5,62.5)"/><rect x="365" y="68" width="11" height="11" transform="rotate(0,370.5,73.5)"/><path d="M 365 79v 11h 5.5a 5.5 5.5, 0, 0, 0, 0 -11" transform="rotate(90,370.5,84.5)"/><path d="M 365 101v 11h 5.5a 5.5 5.5, 0, 0, 0, 0 -11" transform="rotate(-90,370.5,106.5)"/><rect x="365" y="112" width="11" height="11" transform="rotate(0,370.5,117.5)"/><path d="M 365 145v 11h 11v -5.5a 5.5 5.5, 0, 0, 0, -5.5 -5.5" transform="rotate(0,370.5,150.5)"/><path d="M 365 156v 11h 11v -5.5a 5.5 5.5, 0, 0, 0, -5.5 -5.5" transform="rotate(90,370.5,161.5)"/><path d="M 365 189v 11h 5.5a 5.5 5.5, 0, 0, 0, 0 -11" transform="rotate(180,370.5,194.5)"/><path d="M 365 222v 11h 11v -5.5a 5.5 5.5, 0, 0, 0, -5.5 -5.5" transform="rotate(0,370.5,227.5)"/><rect x="365" y="233" width="11" height="11" transform="rotate(0,370.5,238.5)"/><rect x="365" y="244" width="11" height="11" transform="rotate(0,370.5,249.5)"/><rect x="365" y="255" width="11" height="11" transform="rotate(0,370.5,260.5)"/><path d="M 365 266v 11h 11v -5.5a 5.5 5.5, 0, 0, 0, -5.5 -5.5" transform="rotate(180,370.5,271.5)"/><path d="M 365 288v 11h 5.5a 5.5 5.5, 0, 0, 0, 0 -11" transform="rotate(180,370.5,293.5)"/><path d="M 365 310v 11h 5.5a 5.5 5.5, 0, 0, 0, 0 -11" transform="rotate(180,370.5,315.5)"/><circle cx="370.5" cy="337.5" r="5.5" transform="rotate(0,370.5,337.5)"/><rect x="365" y="365" width="11" height="11" transform="rotate(0,370.5,370.5)"/><path d="M 365 398v 11h 11v -5.5a 5.5 5.5, 0, 0, 0, -5.5 -5.5" transform="rotate(-90,370.5,403.5)"/><path d="M 365 409v 11h 11v -5.5a 5.5 5.5, 0, 0, 0, -5.5 -5.5" transform="rotate(180,370.5,414.5)"/><circle cx="370.5" cy="436.5" r="5.5" transform="rotate(0,370.5,436.5)"/><path d="M 365 453v 11h 5.5a 5.5 5.5, 0, 0, 0, 0 -11" transform="rotate(0,370.5,458.5)"/><path d="M 376 24v 11h 5.5a 5.5 5.5, 0, 0, 0, 0 -11" transform="rotate(0,381.5,29.5)"/><path d="M 376 46v 11h 5.5a 5.5 5.5, 0, 0, 0, 0 -11" transform="rotate(0,381.5,51.5)"/><path d="M 376 68v 11h 5.5a 5.5 5.5, 0, 0, 0, 0 -11" transform="rotate(0,381.5,73.5)"/><circle cx="381.5" cy="95.5" r="5.5" transform="rotate(0,381.5,95.5)"/><rect x="376" y="112" width="11" height="11" transform="rotate(0,381.5,117.5)"/><rect x="376" y="123" width="11" height="11" transform="rotate(0,381.5,128.5)"/><path d="M 376 134v 11h 11v -5.5a 5.5 5.5, 0, 0, 0, -5.5 -5.5" transform="rotate(180,381.5,139.5)"/><path d="M 376 178v 11h 11v -5.5a 5.5 5.5, 0, 0, 0, -5.5 -5.5" transform="rotate(-90,381.5,183.5)"/><rect x="376" y="189" width="11" height="11" transform="rotate(0,381.5,194.5)"/><rect x="376" y="200" width="11" height="11" transform="rotate(0,381.5,205.5)"/><path d="M 376 211v 11h 11v -5.5a 5.5 5.5, 0, 0, 0, -5.5 -5.5" transform="rotate(180,381.5,216.5)"/><path d="M 376 255v 11h 11v -5.5a 5.5 5.5, 0, 0, 0, -5.5 -5.5" transform="rotate(0,381.5,260.5)"/><rect x="376" y="266" width="11" height="11" transform="rotate(0,381.5,271.5)"/><path d="M 376 288v 11h 11v -5.5a 5.5 5.5, 0, 0, 0, -5.5 -5.5" transform="rotate(0,381.5,293.5)"/><rect x="376" y="299" width="11" height="11" transform="rotate(0,381.5,304.5)"/><rect x="376" y="310" width="11" height="11" transform="rotate(0,381.5,315.5)"/><path d="M 376 321v 11h 11v -5.5a 5.5 5.5, 0, 0, 0, -5.5 -5.5" transform="rotate(180,381.5,326.5)"/><circle cx="381.5" cy="348.5" r="5.5" transform="rotate(0,381.5,348.5)"/><path d="M 376 365v 11h 11v -5.5a 5.5 5.5, 0, 0, 0, -5.5 -5.5" transform="rotate(0,381.5,370.5)"/><rect x="376" y="376" width="11" height="11" transform="rotate(0,381.5,381.5)"/><rect x="376" y="387" width="11" height="11" transform="rotate(0,381.5,392.5)"/><rect x="376" y="398" width="11" height="11" transform="rotate(0,381.5,403.5)"/><rect x="376" y="409" width="11" height="11" transform="rotate(0,381.5,414.5)"/><path d="M 376 420v 11h 11v -5.5a 5.5 5.5, 0, 0, 0, -5.5 -5.5" transform="rotate(180,381.5,425.5)"/><path d="M 376 442v 11h 5.5a 5.5 5.5, 0, 0, 0, 0 -11" transform="rotate(180,381.5,447.5)"/><circle cx="381.5" cy="469.5" r="5.5" transform="rotate(0,381.5,469.5)"/><rect x="387" y="112" width="11" height="11" transform="rotate(0,392.5,117.5)"/><rect x="387" y="123" width="11" height="11" transform="rotate(0,392.5,128.5)"/><rect x="387" y="134" width="11" height="11" transform="rotate(0,392.5,139.5)"/><path d="M 387 178v 11h 5.5a 5.5 5.5, 0, 0, 0, 0 -11" transform="rotate(0,392.5,183.5)"/><path d="M 387 211v 11h 11v -5.5a 5.5 5.5, 0, 0, 0, -5.5 -5.5" transform="rotate(0,392.5,216.5)"/><rect x="387" y="222" width="11" height="11" transform="rotate(0,392.5,227.5)"/><rect x="387" y="233" width="11" height="11" transform="rotate(0,392.5,238.5)"/><path d="M 387 244v 11h 11v -5.5a 5.5 5.5, 0, 0, 0, -5.5 -5.5" transform="rotate(180,392.5,249.5)"/><rect x="387" y="266" width="11" height="11" transform="rotate(0,392.5,271.5)"/><path d="M 387 277v 11h 5.5a 5.5 5.5, 0, 0, 0, 0 -11" transform="rotate(90,392.5,282.5)"/><rect x="387" y="299" width="11" height="11" transform="rotate(0,392.5,304.5)"/><rect x="387" y="321" width="11" height="11" transform="rotate(0,392.5,326.5)"/><circle cx="392.5" cy="359.5" r="5.5" transform="rotate(0,392.5,359.5)"/><rect x="387" y="376" width="11" height="11" transform="rotate(0,392.5,381.5)"/><rect x="387" y="420" width="11" height="11" transform="rotate(0,392.5,425.5)"/><rect x="387" y="431" width="11" height="11" transform="rotate(0,392.5,436.5)"/><path d="M 387 442v 11h 11v -5.5a 5.5 5.5, 0, 0, 0, -5.5 -5.5" transform="rotate(90,392.5,447.5)"/><path d="M 398 112v 11h 5.5a 5.5 5.5, 0, 0, 0, 0 -11" transform="rotate(0,403.5,117.5)"/><rect x="398" y="134" width="11" height="11" transform="rotate(0,403.5,139.5)"/><rect x="398" y="145" width="11" height="11" transform="rotate(0,403.5,150.5)"/><path d="M 398 156v 11h 5.5a 5.5 5.5, 0, 0, 0, 0 -11" transform="rotate(90,403.5,161.5)"/><path d="M 398 244v 11h 11v -5.5a 5.5 5.5, 0, 0, 0, -5.5 -5.5" transform="rotate(0,403.5,249.5)"/><rect x="398" y="255" width="11" height="11" transform="rotate(0,403.5,260.5)"/><path d="M 398 266v 11h 11v -5.5a 5.5 5.5, 0, 0, 0, -5.5 -5.5" transform="rotate(90,403.5,271.5)"/><path d="M 398 288v 11h 11v -5.5a 5.5 5.5, 0, 0, 0, -5.5 -5.5" transform="rotate(-90,403.5,293.5)"/><rect x="398" y="299" width="11" height="11" transform="rotate(0,403.5,304.5)"/><rect x="398" y="310" width="11" height="11" transform="rotate(0,403.5,315.5)"/><rect x="398" y="321" width="11" height="11" transform="rotate(0,403.5,326.5)"/><path d="M 398 332v 11h 11v -5.5a 5.5 5.5, 0, 0, 0, -5.5 -5.5" transform="rotate(180,403.5,337.5)"/><path d="M 398 365v 11h 11v -5.5a 5.5 5.5, 0, 0, 0, -5.5 -5.5" transform="rotate(-90,403.5,370.5)"/><rect x="398" y="376" width="11" height="11" transform="rotate(0,403.5,381.5)"/><circle cx="403.5" cy="403.5" r="5.5" transform="rotate(0,403.5,403.5)"/><rect x="398" y="420" width="11" height="11" transform="rotate(0,403.5,425.5)"/><path d="M 398 453v 11h 5.5a 5.5 5.5, 0, 0, 0, 0 -11" transform="rotate(180,403.5,458.5)"/><path d="M 409 123v 11h 5.5a 5.5 5.5, 0, 0, 0, 0 -11" transform="rotate(-90,414.5,128.5)"/><rect x="409" y="134" width="11" height="11" transform="rotate(0,414.5,139.5)"/><path d="M 409 145v 11h 11v -5.5a 5.5 5.5, 0, 0, 0, -5.5 -5.5" transform="rotate(90,414.5,150.5)"/><path d="M 409 200v 11h 5.5a 5.5 5.5, 0, 0, 0, 0 -11" transform="rotate(180,414.5,205.5)"/><circle cx="414.5" cy="227.5" r="5.5" transform="rotate(0,414.5,227.5)"/><path d="M 409 255v 11h 5.5a 5.5 5.5, 0, 0, 0, 0 -11" transform="rotate(0,414.5,260.5)"/><rect x="409" y="288" width="11" height="11" transform="rotate(0,414.5,293.5)"/><rect x="409" y="299" width="11" height="11" transform="rotate(0,414.5,304.5)"/><path d="M 409 321v 11h 11v -5.5a 5.5 5.5, 0, 0, 0, -5.5 -5.5" transform="rotate(0,414.5,326.5)"/><path d="M 409 332v 11h 11v -5.5a 5.5 5.5, 0, 0, 0, -5.5 -5.5" transform="rotate(90,414.5,337.5)"/><path d="M 409 354v 11h 5.5a 5.5 5.5, 0, 0, 0, 0 -11" transform="rotate(-90,414.5,359.5)"/><rect x="409" y="365" width="11" height="11" transform="rotate(0,414.5,370.5)"/><rect x="409" y="376" width="11" height="11" transform="rotate(0,414.5,381.5)"/><rect x="409" y="420" width="11" height="11" transform="rotate(0,414.5,425.5)"/><path d="M 409 431v 11h 11v -5.5a 5.5 5.5, 0, 0, 0, -5.5 -5.5" transform="rotate(180,414.5,436.5)"/><path d="M 409 453v 11h 5.5a 5.5 5.5, 0, 0, 0, 0 -11" transform="rotate(0,414.5,458.5)"/><path d="M 420 156v 11h 11v -5.5a 5.5 5.5, 0, 0, 0, -5.5 -5.5" transform="rotate(-90,425.5,161.5)"/><path d="M 420 167v 11h 5.5a 5.5 5.5, 0, 0, 0, 0 -11" transform="rotate(90,425.5,172.5)"/><path d="M 420 189v 11h 11v -5.5a 5.5 5.5, 0, 0, 0, -5.5 -5.5" transform="rotate(-90,425.5,194.5)"/><path d="M 420 200v 11h 11v -5.5a 5.5 5.5, 0, 0, 0, -5.5 -5.5" transform="rotate(90,425.5,205.5)"/><path d="M 420 244v 11h 5.5a 5.5 5.5, 0, 0, 0, 0 -11" transform="rotate(180,425.5,249.5)"/><path d="M 420 266v 11h 11v -5.5a 5.5 5.5, 0, 0, 0, -5.5 -5.5" transform="rotate(-90,425.5,271.5)"/><rect x="420" y="277" width="11" height="11" transform="rotate(0,425.5,282.5)"/><rect x="420" y="288" width="11" height="11" transform="rotate(0,425.5,293.5)"/><path d="M 420 299v 11h 11v -5.5a 5.5 5.5, 0, 0, 0, -5.5 -5.5" transform="rotate(90,425.5,304.5)"/><rect x="420" y="365" width="11" height="11" transform="rotate(0,425.5,370.5)"/><rect x="420" y="376" width="11" height="11" transform="rotate(0,425.5,381.5)"/><rect x="420" y="387" width="11" height="11" transform="rotate(0,425.5,392.5)"/><rect x="420" y="398" width="11" height="11" transform="rotate(0,425.5,403.5)"/><rect x="420" y="409" width="11" height="11" transform="rotate(0,425.5,414.5)"/><rect x="420" y="420" width="11" height="11" transform="rotate(0,425.5,425.5)"/><path d="M 420 431v 11h 11v -5.5a 5.5 5.5, 0, 0, 0, -5.5 -5.5" transform="rotate(90,425.5,436.5)"/><circle cx="425.5" cy="469.5" r="5.5" transform="rotate(0,425.5,469.5)"/><circle cx="436.5" cy="128.5" r="5.5" transform="rotate(0,436.5,128.5)"/><rect x="431" y="156" width="11" height="11" transform="rotate(0,436.5,161.5)"/><path d="M 431 189v 11h 5.5a 5.5 5.5, 0, 0, 0, 0 -11" transform="rotate(0,436.5,194.5)"/><path d="M 431 211v 11h 5.5a 5.5 5.5, 0, 0, 0, 0 -11" transform="rotate(-90,436.5,216.5)"/><path d="M 431 222v 11h 11v -5.5a 5.5 5.5, 0, 0, 0, -5.5 -5.5" transform="rotate(180,436.5,227.5)"/><rect x="431" y="244" width="11" height="11" transform="rotate(0,436.5,249.5)"/><rect x="431" y="255" width="11" height="11" transform="rotate(0,436.5,260.5)"/><rect x="431" y="266" width="11" height="11" transform="rotate(0,436.5,271.5)"/><path d="M 431 277v 11h 11v -5.5a 5.5 5.5, 0, 0, 0, -5.5 -5.5" transform="rotate(90,436.5,282.5)"/><path d="M 431 321v 11h 11v -5.5a 5.5 5.5, 0, 0, 0, -5.5 -5.5" transform="rotate(-90,436.5,326.5)"/><path d="M 431 332v 11h 11v -5.5a 5.5 5.5, 0, 0, 0, -5.5 -5.5" transform="rotate(180,436.5,337.5)"/><path d="M 431 354v 11h 5.5a 5.5 5.5, 0, 0, 0, 0 -11" transform="rotate(-90,436.5,359.5)"/><path d="M 431 365v 11h 11v -5.5a 5.5 5.5, 0, 0, 0, -5.5 -5.5" transform="rotate(90,436.5,370.5)"/><rect x="431" y="409" width="11" height="11" transform="rotate(0,436.5,414.5)"/><circle cx="447.5" cy="139.5" r="5.5" transform="rotate(0,447.5,139.5)"/><path d="M 442 156v 11h 5.5a 5.5 5.5, 0, 0, 0, 0 -11" transform="rotate(0,447.5,161.5)"/><circle cx="447.5" cy="205.5" r="5.5" transform="rotate(0,447.5,205.5)"/><path d="M 442 222v 11h 11v -5.5a 5.5 5.5, 0, 0, 0, -5.5 -5.5" transform="rotate(0,447.5,227.5)"/><rect x="442" y="233" width="11" height="11" transform="rotate(0,447.5,238.5)"/><rect x="442" y="244" width="11" height="11" transform="rotate(0,447.5,249.5)"/><path d="M 442 288v 11h 11v -5.5a 5.5 5.5, 0, 0, 0, -5.5 -5.5" transform="rotate(-90,447.5,293.5)"/><rect x="442" y="299" width="11" height="11" transform="rotate(0,447.5,304.5)"/><rect x="442" y="310" width="11" height="11" transform="rotate(0,447.5,315.5)"/><rect x="442" y="321" width="11" height="11" transform="rotate(0,447.5,326.5)"/><rect x="442" y="332" width="11" height="11" transform="rotate(0,447.5,337.5)"/><path d="M 442 343v 11h 5.5a 5.5 5.5, 0, 0, 0, 0 -11" transform="rotate(90,447.5,348.5)"/><path d="M 442 376v 11h 5.5a 5.5 5.5, 0, 0, 0, 0 -11" transform="rotate(-90,447.5,381.5)"/><rect x="442" y="387" width="11" height="11" transform="rotate(0,447.5,392.5)"/><rect x="442" y="398" width="11" height="11" transform="rotate(0,447.5,403.5)"/><rect x="442" y="409" width="11" height="11" transform="rotate(0,447.5,414.5)"/><path d="M 442 420v 11h 11v -5.5a 5.5 5.5, 0, 0, 0, -5.5 -5.5" transform="rotate(180,447.5,425.5)"/><path d="M 442 442v 11h 5.5a 5.5 5.5, 0, 0, 0, 0 -11" transform="rotate(180,447.5,447.5)"/><circle cx="458.5" cy="117.5" r="5.5" transform="rotate(0,458.5,117.5)"/><circle cx="458.5" cy="172.5" r="5.5" transform="rotate(0,458.5,172.5)"/><path d="M 453 189v 11h 5.5a 5.5 5.5, 0, 0, 0, 0 -11" transform="rotate(180,458.5,194.5)"/><circle cx="458.5" cy="216.5" r="5.5" transform="rotate(0,458.5,216.5)"/><path d="M 453 233v 11h 11v -5.5a 5.5 5.5, 0, 0, 0, -5.5 -5.5" transform="rotate(0,458.5,238.5)"/><rect x="453" y="244" width="11" height="11" transform="rotate(0,458.5,249.5)"/><rect x="453" y="288" width="11" height="11" transform="rotate(0,458.5,293.5)"/><path d="M 453 332v 11h 5.5a 5.5 5.5, 0, 0, 0, 0 -11" transform="rotate(0,458.5,337.5)"/><path d="M 453 365v 11h 5.5a 5.5 5.5, 0, 0, 0, 0 -11" transform="rotate(180,458.5,370.5)"/><path d="M 453 398v 11h 5.5a 5.5 5.5, 0, 0, 0, 0 -11" transform="rotate(0,458.5,403.5)"/><rect x="453" y="420" width="11" height="11" transform="rotate(0,458.5,425.5)"/><rect x="453" y="431" width="11" height="11" transform="rotate(0,458.5,436.5)"/><rect x="453" y="442" width="11" height="11" transform="rotate(0,458.5,447.5)"/><circle cx="458.5" cy="469.5" r="5.5" transform="rotate(0,458.5,469.5)"/><path d="M 464 134v 11h 5.5a 5.5 5.5, 0, 0, 0, 0 -11" transform="rotate(-90,469.5,139.5)"/><rect x="464" y="145" width="11" height="11" transform="rotate(0,469.5,150.5)"/><path d="M 464 156v 11h 5.5a 5.5 5.5, 0, 0, 0, 0 -11" transform="rotate(90,469.5,161.5)"/><path d="M 464 189v 11h 5.5a 5.5 5.5, 0, 0, 0, 0 -11" transform="rotate(0,469.5,194.5)"/><circle cx="469.5" cy="227.5" r="5.5" transform="rotate(0,469.5,227.5)"/><path d="M 464 244v 11h 11v -5.5a 5.5 5.5, 0, 0, 0, -5.5 -5.5" transform="rotate(0,469.5,249.5)"/><path d="M 464 255v 11h 5.5a 5.5 5.5, 0, 0, 0, 0 -11" transform="rotate(90,469.5,260.5)"/><path d="M 464 288v 11h 11v -5.5a 5.5 5.5, 0, 0, 0, -5.5 -5.5" transform="rotate(0,469.5,293.5)"/><rect x="464" y="299" width="11" height="11" transform="rotate(0,469.5,304.5)"/><path d="M 464 310v 11h 5.5a 5.5 5.5, 0, 0, 0, 0 -11" transform="rotate(90,469.5,315.5)"/><path d="M 464 343v 11h 5.5a 5.5 5.5, 0, 0, 0, 0 -11" transform="rotate(-90,469.5,348.5)"/><rect x="464" y="354" width="11" height="11" transform="rotate(0,469.5,359.5)"/><path d="M 464 365v 11h 11v -5.5a 5.5 5.5, 0, 0, 0, -5.5 -5.5" transform="rotate(90,469.5,370.5)"/><path d="M 464 409v 11h 5.5a 5.5 5.5, 0, 0, 0, 0 -11" transform="rotate(-90,469.5,414.5)"/><path d="M 464 420v 11h 11v -5.5a 5.5 5.5, 0, 0, 0, -5.5 -5.5" transform="rotate(90,469.5,425.5)"/><path d="M 464 442v 11h 5.5a 5.5 5.5, 0, 0, 0, 0 -11" transform="rotate(0,469.5,447.5)"/><path clip-rule="evenodd" d="M 62.5 24a 38.5 38.5 0 1 0 0.1 0zm 0 11a 27.5 27.5 0 1 1 -0.1 0Z" transform="rotate(0,62.5,62.5)"/><circle cx="62.5" cy="62.5" r="16.5" transform="rotate(0,62.5,62.5)"/><path clip-rule="evenodd" d="M 436.5 24a 38.5 38.5 0 1 0 0.1 0zm 0 11a 27.5 27.5 0 1 1 -0.1 0Z" transform="rotate(90,436.5,62.5)"/><circle cx="436.5" cy="62.5" r="16.5" transform="rotate(90,436.5,62.5)"/><path clip-rule="evenodd" d="M 62.5 398a 38.5 38.5 0 1 0 0.1 0zm 0 11a 27.5 27.5 0 1 1 -0.1 0Z" transform="rotate(-90,62.5,436.5)"/><circle cx="62.5" cy="436.5" r="16.5" transform="rotate(-90,62.5,436.5)"/></clipPath></defs><rect x="0" y="0" height="500" width="500" clip-path="url('#clip-path-dot-color')" fill="#451a03"/></svg>