<svg width="292" height="385" viewBox="0 0 292 385" fill="none" xmlns="http://www.w3.org/2000/svg">
<path d="M227.905 0.438599C229.565 0.199801 230.853 0.15146 232.901 0.0364116C251.379 -1.0058 290.083 20.4929 277.824 42.9864C277.385 43.7675 271.578 51.4159 271.563 51.3917C306.673 108.033 291.232 178.095 259.042 232.631C249.554 248.705 236.565 264.277 220.013 280.379C220.438 309.609 216.113 339.6 195.764 362.187C183.86 375.637 167.007 383.682 149.062 384.479C117.569 385.928 90.1196 369.168 67.7258 348.636C13.6136 298.708 -23.0358 198.181 16.8053 129.936C15.2969 128.996 13.8215 128.002 12.3818 126.958C-25.7846 99.0171 61.7669 44.1784 68.7197 98.4583C83.3631 97.9497 91.7236 99.6745 105.476 104.041C129.872 64.1273 164.098 33.6558 211.184 26.1544C210.258 12.0295 215.612 6.06729 227.905 0.438599ZM143.548 126.656C170.017 150.202 189.503 175.86 203.048 208.935C205.081 214.195 207.87 220.847 209.383 226.153C229.532 199.429 244.629 167.241 248.071 133.741C250.946 105.772 245.932 68.9961 209.502 72.0483C180.715 79.5371 159.004 102.098 143.548 126.656ZM103.811 251.394C93.4814 220.572 98.72 186.871 110.331 157.127L100.233 150.672C92.8423 172.56 89.4534 186.331 87.8174 209.677C83.83 266.565 119.794 318.685 181.504 287.231C222.894 266.134 250.806 222.899 265.672 179.938C280.019 138.176 284.766 64.4087 232.828 45.2622C227.303 43.2252 217.053 42.2545 210.986 43.2058C171.39 48.4807 140.753 78.548 120.116 110.967L130.503 117.147C152.04 85.4172 197.242 36.3232 241.547 63.1412C254.178 70.7866 261.16 88.4887 263.449 102.504C270.069 146.659 252.52 192.303 227.633 228.535C207.075 258.467 160.072 301.26 121.49 274.897C112.848 268.991 108.315 260.584 103.811 251.394ZM123.289 168.194C120.323 178.172 117.497 187.534 116.034 197.879C111.452 230.292 115.501 276.501 160.799 264.522C165.065 262.736 169.399 261.039 173.431 258.783C164.741 226.256 148.382 191.352 123.289 168.194ZM71.5382 143.661C61.4285 146.503 55.255 150.126 49.8347 159.744C38.6508 180.779 42.3443 210.961 48.8495 232.866C60.1609 270.956 84.1598 310.891 119.121 331.45C132.498 339.315 147.141 341.672 160.892 333.831C170.537 324.774 172.104 319.695 175.52 307.381C154.864 313.654 133.2 315.821 114.046 304.657C58.4022 272.222 67.6262 194.074 85.1943 144.72C79.3776 143.742 77.4023 143.361 71.5382 143.661ZM73.8306 114.762C23.5792 119.8 12.9484 168.229 16.8865 210.545C22.9024 275.193 76.4325 370.201 150.988 368.062C188.166 366.686 202.481 323.614 203.831 292.627L193.022 299.553C182.319 375.208 121.363 364.664 79.9693 320.34C47.2474 284.178 25.4723 236.092 26.7061 186.974C27.4689 156.572 44.6871 123.642 79.1417 127.759C135.697 134.516 173.423 200.913 187.642 248.758L196.825 240.367C181.386 186.532 136.147 116.884 73.8306 114.762Z" fill="#171211"/>
</svg>
